<?xml version="1.0" encoding="utf-8" ?>
<svg xmlns="http://www.w3.org/2000/svg" xmlns:ev="http://www.w3.org/2001/xml-events" xmlns:xlink="http://www.w3.org/1999/xlink" baseProfile="full" height="100mm" version="1.1" viewBox="0 0 1000 1000" width="100mm">
  <defs/>
  <g id="background">
    <path d="M 487,83 L 408,93 L 330,119 L 253,164 L 191,220 L 142,286 L 107,360 L 88,434 L 83,517 L 93,592 L 124,681 L 170,755 L 221,810 L 281,855 L 357,892 L 434,912 L 512,917 L 592,907 L 670,881 L 747,836 L 810,779 L 857,716 L 892,643 L 912,566 L 917,488 L 907,408 L 881,330 L 836,253 L 780,191 L 714,142 L 640,107 L 566,88 Z" fill="white" stroke="#8B7355" stroke-width="0.5"/>
  </g>
  <g id="foreground">
    <g id="details">
      <path d="M 487,83 L 408,93 L 330,119 L 253,164 L 191,220 L 142,286 L 107,360 L 88,434 L 83,517 L 93,592 L 124,681 L 170,755 L 221,810 L 281,855 L 357,892 L 434,912 L 512,917 L 592,907 L 670,881 L 747,836 L 810,779 L 857,716 L 892,643 L 912,566 L 917,488 L 907,408 L 881,330 L 836,253 L 780,191 L 714,142 L 640,107 L 566,88 Z" fill="white" stroke="#8B7355" stroke-width="0.375"/>
      <path d="M 479,100 L 559,104 L 632,122 L 708,158 L 767,202 L 821,261 L 862,329 L 890,409 L 900,482 L 895,566 L 877,635 L 845,703 L 799,766 L 739,821 L 669,863 L 591,890 L 519,900 L 434,895 L 365,877 L 297,845 L 233,798 L 179,739 L 137,669 L 113,603 L 100,521 L 104,441 L 122,368 L 158,292 L 202,233 L 261,179 L 329,138 L 397,113 Z" fill="white" stroke="#8B7355" stroke-width="0.375"/>
      <path d="M 630,788 L 630,803 L 661,803 L 661,788 Z" fill="white" stroke="#8B7355" stroke-width="0.375"/>
      <path d="M 339,788 L 339,803 L 370,803 L 370,788 Z" fill="white" stroke="#8B7355" stroke-width="0.375"/>
      <path d="M 480,218 L 471,228 L 424,245 L 403,261 L 390,277 L 372,317 L 370,371 L 363,374 L 356,385 L 356,417 L 366,467 L 376,484 L 386,492 L 403,533 L 426,565 L 417,601 L 408,618 L 401,624 L 381,627 L 381,754 L 329,754 L 329,650 L 256,685 L 233,704 L 226,718 L 274,769 L 306,792 L 308,770 L 692,770 L 694,792 L 726,769 L 774,715 L 767,704 L 744,685 L 671,650 L 671,754 L 619,754 L 619,627 L 599,624 L 592,618 L 583,601 L 574,565 L 597,533 L 614,492 L 632,472 L 639,449 L 644,384 L 630,371 L 630,328 L 624,304 L 604,269 L 576,245 L 529,228 L 517,217 Z" fill="white" stroke="#8B7355" stroke-width="0.375"/>
      <path d="M 416,633 L 421,627 L 422,624 L 426,619 L 432,607 L 432,605 L 434,602 L 434,600 L 435,599 L 435,597 L 436,596 L 436,594 L 438,590 L 438,587 L 439,586 L 439,583 L 440,582 L 440,579 L 441,578 L 451,586 L 465,593 L 467,593 L 471,595 L 474,595 L 475,596 L 478,596 L 479,597 L 484,597 L 485,598 L 494,598 L 495,599 L 505,599 L 506,598 L 515,598 L 516,597 L 521,597 L 522,596 L 529,595 L 530,594 L 535,593 L 540,590 L 542,590 L 544,589 L 546,587 L 552,584 L 559,578 L 561,582 L 561,586 L 562,587 L 562,590 L 563,591 L 563,593 L 564,594 L 564,596 L 565,597 L 566,602 L 568,605 L 568,607 L 573,617 L 575,619 L 576,622 L 578,624 L 579,627 L 584,633 L 580,637 L 579,637 L 576,640 L 573,641 L 571,643 L 561,648 L 559,648 L 556,650 L 554,650 L 553,651 L 551,651 L 547,653 L 544,653 L 543,654 L 540,654 L 539,655 L 535,655 L 534,656 L 528,656 L 527,657 L 519,657 L 518,658 L 505,658 L 504,659 L 496,659 L 495,658 L 482,658 L 481,657 L 473,657 L 472,656 L 466,656 L 465,655 L 461,655 L 460,654 L 453,653 L 452,652 L 450,652 L 449,651 L 444,650 L 441,648 L 439,648 L 429,643 L 427,641 L 424,640 L 421,637 L 420,637 Z" fill="white" stroke="#8B7355" stroke-width="0.375"/>
      <path d="M 374,421 L 376,420 L 377,421 L 392,422 L 401,425 L 430,439 L 444,444 L 460,448 L 482,450 L 483,451 L 517,451 L 518,450 L 540,448 L 565,441 L 599,425 L 608,422 L 623,421 L 625,420 L 626,424 L 625,425 L 625,431 L 624,432 L 621,453 L 618,463 L 615,468 L 607,476 L 601,479 L 593,504 L 584,522 L 582,524 L 581,528 L 573,541 L 564,552 L 547,567 L 529,577 L 510,582 L 490,582 L 471,577 L 459,571 L 441,557 L 427,541 L 408,506 L 399,479 L 393,476 L 385,468 L 382,463 L 378,448 Z" fill="white" stroke="#8B7355" stroke-width="0.375"/>
      <path d="M 373,390 L 374,389 L 626,389 L 627,390 L 627,403 L 626,404 L 612,404 L 611,405 L 603,406 L 602,407 L 597,408 L 588,413 L 586,413 L 577,418 L 575,418 L 565,423 L 560,424 L 557,426 L 555,426 L 551,428 L 548,428 L 547,429 L 544,429 L 543,430 L 540,430 L 535,432 L 530,432 L 529,433 L 521,433 L 520,434 L 505,434 L 504,435 L 496,435 L 495,434 L 480,434 L 479,433 L 465,432 L 464,431 L 461,431 L 460,430 L 449,428 L 448,427 L 443,426 L 440,424 L 435,423 L 432,421 L 430,421 L 425,418 L 423,418 L 414,413 L 412,413 L 403,408 L 401,408 L 397,406 L 389,405 L 388,404 L 374,404 L 373,403 Z" fill="white" stroke="#8B7355" stroke-width="0.375"/>
      <path d="M 388,321 L 392,309 L 404,286 L 421,267 L 430,261 L 433,263 L 433,304 L 438,309 L 446,308 L 449,304 L 449,254 L 455,249 L 466,246 L 469,248 L 469,313 L 473,320 L 483,320 L 486,316 L 486,236 L 488,234 L 512,234 L 514,236 L 514,316 L 519,321 L 525,321 L 530,317 L 531,313 L 531,248 L 534,246 L 545,249 L 551,253 L 551,304 L 556,309 L 562,309 L 567,304 L 567,263 L 569,261 L 579,267 L 594,283 L 608,309 L 613,326 L 613,371 L 388,372 Z" fill="white" stroke="#8B7355" stroke-width="0.375"/>
    </g>
  </g>
</svg>
