<svg xmlns="http://www.w3.org/2000/svg" width="219.428mm" height="142.218mm" viewBox="0 0 219.428 142.218" data-na-document="PS01_T02_D02" data-na-viewport="Viewport_001" data-na-space="paper-mm, viewport frame, origin top-left, x right, y down" data-na-segments="1066"><path data-na-class="visible" fill="none" stroke="#999999" stroke-width="0.063" stroke-linecap="round" stroke-linejoin="round" d="M1010.127,120.949L-589.873,120.949"/><path data-na-class="visible" fill="none" stroke="#666666" stroke-width="0.085" stroke-linecap="round" stroke-linejoin="round" d="M124.327,98.796L124.327,98.529M124.327,98.487L124.327,98.435M124.327,98.435L124.327,98.379M124.327,98.323L124.327,98.379M124.427,99.489L124.727,99.489M124.427,99.489L124.427,95.389M124.427,95.389L124.727,95.389M124.127,96.47L124.127,96.33M123.727,96.47L123.727,96.33M124.127,96.623L124.127,96.675M123.727,96.675L123.727,96.623M124.327,98.893L124.427,98.893M124.427,98.214L124.327,98.214M124.127,96.649L124.427,96.649M124.427,96.449L124.127,96.449M124.127,96.295L123.727,96.295M123.727,96.79L124.127,96.79M124.127,96.47L123.727,96.47M123.727,116.949L123.727,117.949M123.727,117.949L124.127,117.949M124.127,116.949L123.727,116.949M210.727,97.949L211.727,97.949M211.727,97.949L211.727,96.949M211.727,96.949L210.727,96.949"/><path data-na-class="visible" fill="none" stroke="#000000" stroke-width="0.106" stroke-linecap="round" stroke-linejoin="round" d="M5.627,117.949L5.627,120.949M46.927,104.149L58.16,104.149M48.327,102.749L56.76,102.749M46.927,83.549L46.927,104.149M48.327,102.749L48.327,84.949M56.76,84.949L56.76,102.749M48.327,84.949L56.76,84.949M46.927,83.549L58.16,83.549M46.927,76.749L46.927,83.149M48.327,81.749L48.327,78.149M46.927,83.149L58.16,83.149M48.327,81.749L56.76,81.749M48.327,78.149L56.76,78.149M46.927,76.749L58.16,76.749M56.76,78.149L56.76,81.749M10.127,117.949L10.127,120.949M89.494,104.149L58.76,104.149M58.76,104.149L89.494,104.149M58.76,104.149L89.494,104.149M89.494,104.149L58.76,104.149M102.127,104.949L46.127,104.949M46.127,104.949L46.127,105.949M46.127,105.949L102.127,105.949M58.16,83.549L58.16,104.149M58.76,104.149L58.76,76.749M58.16,76.749L58.16,83.149M90.094,104.149L101.327,104.149M91.494,102.749L99.927,102.749M5.227,15.449L5.227,16.949M5.227,16.949L15.027,16.949M15.027,16.949L15.027,15.449M4.827,15.449L15.427,15.449M15.427,15.449L15.427,13.949M4.827,13.949L4.827,15.449M15.427,13.949L15.427,12.449M4.827,12.449L4.827,13.949M15.427,12.449L15.427,10.949M4.827,10.949L4.827,12.449M8.206,3.773L8.272,3.773M8.463,3.773L8.272,3.773M8.769,3.773L8.463,3.773M9.166,3.773L8.769,3.773M9.63,3.773L9.166,3.773M10.127,3.773L9.63,3.773M10.624,3.773L10.127,3.773M11.485,3.773L11.087,3.773M11.087,3.773L10.624,3.773M12.048,3.773L11.982,3.773M11.982,3.773L11.79,3.773M11.79,3.773L11.485,3.773M14.427,8.249L5.827,8.249M5.827,8.249L5.827,10.349M14.427,10.349L14.427,8.249M102.127,75.949L102.127,104.949M124.127,105.949L124.127,117.949M123.327,105.949L186.227,105.949M186.227,104.949L123.327,104.949M123.327,104.949L123.327,105.949M124.727,80.149L124.727,104.949M126.127,80.149L126.127,104.949M210.727,117.949L210.727,78.349M186.227,104.949L186.227,105.949M190.727,117.949L190.727,74.249M192.927,92.749L192.927,81.349M201.727,81.349L201.727,92.749M192.927,81.349L201.727,81.349M185.427,80.149L185.427,104.949M186.227,74.249L186.227,78.749M186.227,80.149L186.227,104.949M185.627,74.249L191.327,74.249M191.327,74.249L191.327,73.449M185.627,73.449L185.627,74.249M191.327,73.449L188.477,73.049M188.477,73.049L185.627,73.449M5.827,10.349L4.827,10.949M15.427,10.949L14.427,10.349M7.252,7.964L7.252,8.249M7.26,7.877L7.252,7.964M7.283,7.805L7.26,7.877M7.321,7.75L7.283,7.805M7.374,7.71L7.321,7.75M7.442,7.687L7.374,7.71M7.526,7.679L7.442,7.687M7.615,7.679L7.526,7.679M7.874,7.679L7.615,7.679M7.919,5.816L7.8,7.679M8.288,7.679L7.874,7.679M8.826,7.679L8.288,7.679M9.454,7.679L8.826,7.679M10.127,7.679L9.454,7.679M8.024,4.188L7.919,5.816M7.785,4.183L7.841,4.188M7.659,3.998L7.664,4.056M7.919,4.188L7.841,4.188M7.664,3.94L7.659,3.998M7.841,3.808L7.785,3.813M8.206,3.773L7.841,3.808M7.919,4.188L8.147,4.188M8.147,4.188L8.511,4.188M8.511,4.188L8.984,4.188M8.984,4.188L9.535,4.188M9.535,4.188L10.127,4.188M10.8,7.679L10.127,7.679M11.427,7.679L10.8,7.679M13.001,8.249L13.001,7.964M12.728,7.679L12.639,7.679M12.811,7.687L12.728,7.679M13.001,7.964L12.994,7.877M12.994,7.877L12.971,7.805M12.971,7.805L12.933,7.75M12.88,7.71L12.811,7.687M12.933,7.75L12.88,7.71M12.639,7.679L12.379,7.679M12.454,7.679L12.335,5.816M12.379,7.679L11.966,7.679M11.966,7.679L11.427,7.679M10.127,4.188L10.718,4.188M10.718,4.188L11.27,4.188M12.335,5.816L12.23,4.188M12.335,4.188L12.413,4.188M12.413,4.188L12.468,4.183M12.59,4.056L12.595,3.998M12.413,3.808L12.048,3.773M12.595,3.998L12.59,3.94M12.468,3.813L12.413,3.808M12.106,4.188L12.335,4.188M11.743,4.188L12.106,4.188M11.27,4.188L11.743,4.188M126.527,104.349L126.527,81.749M126.127,78.176L126.127,78.076M124.927,78.076L124.927,78.176M126.527,81.749L126.875,81.561M126.875,81.561L127.231,81.388M127.594,81.23L127.231,81.388M127.964,81.089L127.594,81.23M127.964,81.089L128.339,80.963M128.72,80.854L128.339,80.963M129.105,80.761L128.72,80.854M129.493,80.685L129.105,80.761M129.884,80.625L129.493,80.685M130.278,80.583L129.884,80.625M130.673,80.557L130.278,80.583M131.069,80.549L130.673,80.557M136.41,104.349L136.41,80.349M135.61,81.749L135.61,104.349M137.41,103.349L137.41,82.149M131.069,80.549L131.464,80.557M131.464,80.557L131.859,80.583M131.859,80.583L132.253,80.625M132.253,80.625L132.644,80.685M132.644,80.685L133.033,80.761M133.033,80.761L133.417,80.854M133.417,80.854L133.798,80.963M133.798,80.963L134.173,81.089M134.173,81.089L134.543,81.23M134.644,78.076L134.644,78.176M135.844,78.176L135.844,78.076M134.906,81.388L135.262,81.561M135.262,81.561L135.61,81.749M134.543,81.23L134.906,81.388M137.41,82.149L137.682,81.961M137.959,81.788L137.682,81.961M138.243,81.63L137.959,81.788M138.531,81.489L138.243,81.63M138.824,81.363L138.531,81.489M139.12,81.254L138.824,81.363M139.42,81.161L139.12,81.254M139.723,81.085L139.42,81.161M140.028,81.025L139.723,81.085M140.335,80.983L140.028,81.025M140.643,80.957L140.335,80.983M140.952,80.949L140.643,80.957M144.494,82.149L144.494,103.349M146.293,104.349L146.293,81.749M145.494,80.349L145.494,104.349M140.952,80.949L141.26,80.957M141.26,80.957L141.568,80.983M141.568,80.983L141.875,81.025M141.875,81.025L142.18,81.085M142.18,81.085L142.483,81.161M142.483,81.161L142.783,81.254M142.783,81.254L143.08,81.363M143.08,81.363L143.373,81.489M143.373,81.489L143.661,81.63M143.661,81.63L143.944,81.788M143.944,81.788L144.222,81.961M144.222,81.961L144.494,82.149M146.293,81.749L146.642,81.561M124.327,78.176L124.327,78.749M145.56,78.176L145.56,78.076M144.36,78.076L144.36,78.176M146.998,81.388L146.642,81.561M147.361,81.23L146.998,81.388M147.731,81.089L147.361,81.23M148.106,80.963L147.731,81.089M148.486,80.854L148.106,80.963M148.871,80.761L148.486,80.854M149.26,80.685L148.871,80.761M149.651,80.625L149.26,80.685M150.044,80.583L149.651,80.625M150.439,80.557L150.044,80.583M150.835,80.549L150.439,80.557M155.377,81.749L155.377,104.349M156.177,104.349L156.177,81.749M155.029,81.561L155.377,81.749M154.673,81.388L155.029,81.561M154.309,81.23L154.673,81.388M153.94,81.089L154.309,81.23M153.564,80.963L153.94,81.089M153.184,80.854L153.564,80.963M152.799,80.761L153.184,80.854M152.411,80.685L152.799,80.761M152.019,80.625L152.411,80.685M151.626,80.583L152.019,80.625M151.231,80.557L151.626,80.583M150.835,80.549L151.231,80.557M123.927,79.649L123.927,80.149M123.927,78.749L123.927,79.649M155.877,78.176L155.877,78.076M154.677,78.076L154.677,78.176M123.927,78.749L186.327,78.749M156.525,81.561L156.177,81.749M156.881,81.388L156.525,81.561M157.244,81.23L156.881,81.388M157.614,81.089L157.244,81.23M157.989,80.963L157.614,81.089M158.37,80.854L157.989,80.963M158.755,80.761L158.37,80.854M159.143,80.685L158.755,80.761M159.534,80.625L159.143,80.685M159.928,80.583L159.534,80.625M160.323,80.557L159.928,80.583M160.718,80.549L160.323,80.557M90.094,83.549L90.094,104.149M91.494,84.949L91.494,102.749M102.127,104.949L102.127,105.949M99.927,84.949L99.927,102.749M101.327,83.549L101.327,104.149M89.494,76.749L89.494,104.149M90.094,76.749L90.094,83.149M90.094,83.549L101.327,83.549M90.094,83.149L101.327,83.149M91.494,81.749L99.927,81.749M91.494,84.949L99.927,84.949M101.327,76.749L101.327,83.149M58.76,76.749L89.494,76.749M83.927,6.428L5.127,72.549M214.727,72.549L214.927,72.549M91.494,81.749L91.494,78.149M91.494,78.149L99.927,78.149M90.094,76.749L101.327,76.749M99.927,78.149L99.927,81.749M5.127,75.949L124.327,75.949M211.327,75.949L214.727,75.949M214.727,75.949L214.727,74.549M214.727,73.149L214.727,72.549M5.127,72.549L5.127,73.149M5.127,74.549L5.127,75.949M214.927,72.549L136.127,6.428M136.127,6.428L83.927,6.428M2.727,74.049L3.227,74.549M216.827,74.549L217.327,74.049M217.327,74.049L217.327,73.149M217.327,73.149L189.189,73.149M187.764,73.149L2.727,73.149M2.727,73.149L2.727,74.049M124.927,74.271L124.927,78.076M126.127,74.271L126.127,78.076M124.327,74.365L124.327,78.176M134.644,74.271L134.644,78.076M135.844,74.271L135.844,78.076M144.36,74.271L144.36,78.076M145.56,74.271L145.56,78.076M154.677,74.271L154.677,78.076M155.877,74.271L155.877,78.076M135.61,104.349L126.527,104.349M135.61,104.349L126.527,104.349M145.494,104.349L136.41,104.349M135.61,104.349L126.527,104.349M136.41,104.349L145.494,104.349M144.494,103.349L137.41,103.349M145.494,104.349L136.41,104.349M135.61,104.349L126.527,104.349M155.377,104.349L146.293,104.349M145.494,104.349L136.41,104.349M135.61,104.349L126.527,104.349M124.127,117.949L124.127,120.949M155.377,104.349L146.293,104.349M145.494,104.349L136.41,104.349M135.61,104.349L126.527,104.349M165.26,104.349L156.177,104.349M155.377,104.349L146.293,104.349M145.494,104.349L136.41,104.349M135.61,104.349L126.527,104.349M146.293,104.349L155.377,104.349M165.26,104.349L156.177,104.349M155.377,104.349L146.293,104.349M145.494,104.349L136.41,104.349M135.61,104.349L126.527,104.349M175.144,104.349L166.06,104.349M165.26,104.349L156.177,104.349M155.377,104.349L146.293,104.349M145.494,104.349L136.41,104.349M135.61,104.349L126.527,104.349M126.527,104.349L135.61,104.349M136.41,104.349L145.494,104.349M146.293,104.349L155.377,104.349M156.177,104.349L165.26,104.349M166.06,104.349L175.144,104.349M175.943,104.349L185.027,104.349M175.144,104.349L166.06,104.349M165.26,104.349L156.177,104.349M155.377,104.349L146.293,104.349M145.494,104.349L136.41,104.349M135.61,104.349L126.527,104.349M211.327,74.049L211.327,73.37M211.327,73.369L211.327,74.049M156.177,104.349L165.26,104.349M166.06,104.349L175.144,104.349M167.06,103.349L174.144,103.349M175.943,104.349L185.027,104.349M190.727,117.949L190.727,120.949M210.727,120.949L210.727,117.949M164.994,74.271L164.994,78.076M166.194,74.271L166.194,78.076M175.31,74.271L175.31,78.076M176.51,74.271L176.51,78.076M165.26,81.749L165.26,104.349M166.06,104.349L166.06,80.349M167.06,103.349L167.06,82.149M136.41,80.349L145.494,80.349M160.718,80.549L161.114,80.557M161.114,80.557L161.509,80.583M161.509,80.583L161.903,80.625M161.903,80.625L162.294,80.685M162.294,80.685L162.683,80.761M162.683,80.761L163.067,80.854M164.556,81.388L164.912,81.561M164.912,81.561L165.26,81.749M163.067,80.854L163.448,80.963M163.448,80.963L163.823,81.089M163.823,81.089L164.193,81.23M164.193,81.23L164.556,81.388M164.994,78.076L164.994,78.176M166.194,78.176L166.194,78.076M167.06,82.149L167.332,81.961M167.332,81.961L167.609,81.788M167.893,81.63L167.609,81.788M168.181,81.489L167.893,81.63M168.474,81.363L168.181,81.489M168.77,81.254L168.474,81.363M169.07,81.161L168.77,81.254M169.373,81.085L169.07,81.161M169.678,81.025L169.373,81.085M169.985,80.983L169.678,81.025M170.293,80.957L169.985,80.983M170.602,80.949L170.293,80.957M174.144,82.149L174.144,103.349M175.943,104.349L175.943,81.749M175.144,80.349L175.144,104.349M170.602,80.949L170.91,80.957M170.91,80.957L171.218,80.983M171.218,80.983L171.525,81.025M171.525,81.025L171.83,81.085M171.83,81.085L172.133,81.161M172.133,81.161L172.433,81.254M172.433,81.254L172.73,81.363M172.73,81.363L173.023,81.489M173.023,81.489L173.311,81.63M173.311,81.63L173.594,81.788M173.594,81.788L173.872,81.961M173.872,81.961L174.144,82.149M166.06,80.349L175.144,80.349M176.51,78.176L176.51,78.076M175.31,78.076L175.31,78.176M176.292,81.561L175.943,81.749M176.648,81.388L176.292,81.561M176.648,81.388L177.011,81.23M177.011,81.23L177.381,81.089M177.756,80.963L177.381,81.089M178.136,80.854L177.756,80.963M178.521,80.761L178.136,80.854M178.91,80.685L178.521,80.761M179.301,80.625L178.91,80.685M179.694,80.583L179.301,80.625M180.089,80.557L179.694,80.583M180.485,80.549L180.089,80.557M193.727,91.949L193.727,82.149M194.727,90.949L194.727,83.149M193.727,91.949L200.927,91.949M194.727,90.949L199.927,90.949M192.927,93.349L201.727,93.349M201.727,92.749L192.927,92.749M192.927,92.749L192.927,93.349M201.727,92.749L201.727,93.349M199.927,83.149L199.927,90.949M200.927,82.149L200.927,91.949M194.727,83.149L199.927,83.149M193.727,82.149L200.927,82.149M190.727,78.349L211.127,78.349M211.127,78.349L211.127,75.949M190.727,75.949L211.327,75.949M211.327,75.949L211.327,74.049M191.327,74.049L211.327,74.049M185.027,81.749L185.027,104.349M180.485,80.549L180.881,80.557M180.881,80.557L181.276,80.583M181.276,80.583L181.669,80.625M181.669,80.625L182.061,80.685M182.061,80.685L182.449,80.761M182.449,80.761L182.834,80.854M182.834,80.854L183.214,80.963M183.214,80.963L183.59,81.089M183.59,81.089L183.959,81.23M183.959,81.23L184.323,81.388M184.323,81.388L184.679,81.561M184.679,81.561L185.027,81.749M186.327,78.749L186.327,79.649M186.327,79.649L186.327,80.149M211.327,74.049L211.327,73.37M3.227,74.549L124.327,74.549M211.327,74.549L216.827,74.549M123.927,80.149L186.327,80.149M5.627,75.949L5.627,117.949M10.127,75.949L10.127,117.949M46.127,75.949L46.127,104.949M5.627,16.949L5.627,72.129M14.627,64.577L14.627,16.949M124.938,74.264L125.227,74.083M125.251,74.083L125.827,74.083M125.839,74.091L126.112,74.262M134.69,74.242L134.944,74.083M134.968,74.083L135.544,74.083M135.556,74.091L135.792,74.239M144.444,74.219L144.66,74.083M144.685,74.083L145.26,74.083M145.272,74.091L145.473,74.217M154.799,74.195L154.977,74.083M155.001,74.083L155.577,74.083M155.589,74.091L155.751,74.193M165.154,74.171L165.294,74.083M165.318,74.083L165.894,74.083M165.906,74.091L166.03,74.169M175.51,74.146L175.61,74.083M175.635,74.083L176.21,74.083M176.222,74.091L176.308,74.145M124.327,74.365L124.699,74.365M124.699,74.365L124.927,74.365M126.127,74.365L134.644,74.365M135.792,74.239L135.844,74.271M135.844,74.365L144.36,74.365M144.371,74.264L144.444,74.219M145.473,74.217L145.56,74.271M145.56,74.365L154.677,74.365M154.688,74.264L154.799,74.195M155.751,74.193L155.877,74.271M155.877,74.365L164.994,74.365M165.005,74.264L165.154,74.171M166.03,74.169L166.194,74.271M166.194,74.365L175.31,74.365M175.321,74.264L175.51,74.146M176.308,74.145L176.51,74.271M176.51,74.365L186.227,74.365M209.845,74.049L210.318,73.577M210.318,73.577L210.427,73.371M210.427,73.371L210.562,73.369M210.562,73.369L210.792,73.369M210.792,73.369L211.148,73.37M211.148,73.37L211.327,73.37M124.938,74.264L125.227,74.083M125.251,74.083L125.827,74.083M125.839,74.091L126.112,74.262M124.327,74.365L124.699,74.365M124.699,74.365L124.927,74.365M126.127,74.365L134.644,74.365M134.69,74.242L134.944,74.083M134.968,74.083L135.544,74.083M135.556,74.091L135.792,74.239M135.792,74.239L135.844,74.271M135.844,74.365L144.36,74.365M144.444,74.219L144.66,74.083M144.371,74.264L144.444,74.219M144.685,74.083L145.26,74.083M145.272,74.091L145.473,74.217M145.473,74.217L145.56,74.271M145.56,74.365L154.677,74.365M154.799,74.195L154.977,74.083M154.688,74.264L154.799,74.195M155.001,74.083L155.577,74.083M155.589,74.091L155.751,74.193M155.751,74.193L155.877,74.271M155.877,74.365L164.994,74.365M171.83,81.085L171.927,81.109M171.927,81.109L172.133,81.161M170.91,80.957L171.008,80.965M171.008,80.965L171.218,80.983M170.7,80.951L170.91,80.957M170.602,80.949L170.7,80.951M171.218,80.983L171.316,80.996M171.316,80.996L171.525,81.025M176.648,81.388L176.778,81.332M176.778,81.332L177.011,81.23M177.515,81.044L177.756,80.963M177.381,81.089L177.515,81.044M177.892,80.924L178.136,80.854M177.756,80.963L177.892,80.924M178.91,80.685L179.049,80.664M179.049,80.664L179.301,80.625M179.694,80.583L179.836,80.574M180.089,80.557L180.231,80.554M180.231,80.554L180.485,80.549M182.449,80.761L182.587,80.794M182.587,80.794L182.834,80.854M183.59,81.089L183.722,81.139M183.722,81.139L183.959,81.23M184.585,81.515L184.679,81.561M184.45,81.45L184.585,81.515M184.679,81.561L184.803,81.628M184.803,81.628L185.027,81.749M126.875,81.561L127.002,81.499M127.002,81.499L127.231,81.388M127.361,81.332L127.594,81.23M127.231,81.388L127.361,81.332M127.594,81.23L127.726,81.18M128.098,81.044L128.339,80.963M127.964,81.089L128.098,81.044M128.475,80.924L128.72,80.854M128.339,80.963L128.475,80.924M129.633,80.664L129.884,80.625M129.493,80.685L129.633,80.664M129.884,80.625L130.025,80.61M130.025,80.61L130.278,80.583M130.278,80.583L130.419,80.574M130.673,80.557L130.814,80.554M130.814,80.554L131.069,80.549M133.033,80.761L133.17,80.794M133.17,80.794L133.417,80.854M134.305,81.139L134.543,81.23M134.173,81.089L134.305,81.139M134.543,81.23L134.672,81.287M134.672,81.287L134.906,81.388M135.169,81.515L135.262,81.561M135.118,81.491L135.169,81.515M144.308,82.021L144.494,82.149M143.944,81.788L144.033,81.843M144.033,81.843L144.222,81.961M143.661,81.63L143.751,81.681M143.751,81.681L143.944,81.788M138.824,81.363L138.918,81.328M138.918,81.328L139.12,81.254M139.216,81.224L139.42,81.161M139.12,81.254L139.216,81.224M139.82,81.066L140.028,81.025M139.723,81.085L139.82,81.066M141.05,80.951L141.26,80.957M140.952,80.949L141.05,80.951M142.277,81.109L142.483,81.161M142.18,81.085L142.277,81.109M141.358,80.965L141.568,80.983M141.26,80.957L141.358,80.965M141.666,80.996L141.875,81.025M141.568,80.983L141.666,80.996M209.845,74.049L210.318,73.577M210.318,73.577L210.427,73.371M210.427,73.371L210.562,73.369M210.562,73.369L210.792,73.369M210.792,73.369L211.148,73.37M211.148,73.37L211.327,73.37M165.154,74.171L165.294,74.083M165.005,74.264L165.154,74.171M165.318,74.083L165.894,74.083M165.906,74.091L166.03,74.169M166.03,74.169L166.194,74.271M166.194,74.365L175.31,74.365M175.51,74.146L175.61,74.083M175.321,74.264L175.51,74.146M175.635,74.083L176.21,74.083M176.222,74.091L176.308,74.145M176.308,74.145L176.51,74.271M176.51,74.365L186.227,74.365M146.998,81.388L147.128,81.332M147.128,81.332L147.361,81.23M147.865,81.044L148.106,80.963M147.731,81.089L147.865,81.044M148.106,80.963L148.242,80.924M148.242,80.924L148.486,80.854M149.26,80.685L149.399,80.664M149.399,80.664L149.651,80.625M150.044,80.583L150.186,80.574M150.439,80.557L150.581,80.554M150.581,80.554L150.835,80.549M152.799,80.761L152.937,80.794M152.937,80.794L153.184,80.854M154.072,81.139L154.309,81.23M153.94,81.089L154.072,81.139M155.153,81.628L155.377,81.749M155.029,81.561L155.153,81.628M156.301,81.682L156.525,81.561M156.177,81.749L156.301,81.682M156.525,81.561L156.652,81.499M156.652,81.499L156.881,81.388M157.614,81.089L157.748,81.044M157.748,81.044L157.989,80.963M158.125,80.924L158.37,80.854M157.989,80.963L158.125,80.924M160.323,80.557L160.464,80.554M160.464,80.554L160.718,80.549M162.82,80.794L163.067,80.854M162.683,80.761L162.82,80.794M163.823,81.089L163.955,81.139M163.955,81.139L164.193,81.23M164.322,81.287L164.556,81.388M164.193,81.23L164.322,81.287M167.06,82.149L167.145,82.09M173.872,81.961L173.958,82.021M173.683,81.843L173.872,81.961M173.401,81.681L173.594,81.788M173.311,81.63L173.401,81.681M168.474,81.363L168.568,81.328M168.568,81.328L168.77,81.254M168.866,81.224L169.07,81.161M168.77,81.254L168.866,81.224M169.47,81.066L169.678,81.025M169.373,81.085L169.47,81.066"/><path data-na-class="authored" fill="none" stroke="#666666" stroke-width="0.068" stroke-linecap="round" stroke-linejoin="round" d="M124.127,117.949L123.727,117.949M123.727,116.949L124.127,116.949M123.727,117.949L123.727,116.949M124.327,98.379L124.327,98.435M124.327,98.323L124.327,98.379M124.327,98.529L124.327,98.796M124.327,98.487L124.327,98.435M124.427,95.389L124.727,95.389M124.727,99.489L124.427,99.489M124.427,95.389L124.427,99.489M124.127,96.47L124.127,96.33M123.727,96.33L123.727,96.47M124.127,96.675L124.127,96.623M123.727,96.623L123.727,96.675M211.727,97.949L210.727,97.949M210.727,96.949L211.727,96.949M211.727,96.949L211.727,97.949"/><path data-na-class="authored" fill="none" stroke="#000000" stroke-width="0.085" stroke-linecap="round" stroke-linejoin="round" d="M102.127,105.949L46.127,105.949M46.127,104.949L102.127,104.949M102.127,105.949L102.127,104.949M46.127,104.949L46.127,105.949M89.494,76.749L58.76,76.749M89.494,76.749L89.494,104.149M58.76,104.149L89.494,104.149M58.76,104.149L58.76,76.749M58.16,104.149L46.927,104.149M58.16,83.549L46.927,83.549M46.927,104.149L46.927,83.549M48.327,102.749L48.327,84.949M58.16,104.149L58.16,83.549M56.76,102.749L56.76,84.949M48.327,102.749L56.76,102.749M56.76,84.949L48.327,84.949M58.16,83.149L46.927,83.149M58.16,76.749L46.927,76.749M46.927,83.149L46.927,76.749M48.327,81.749L48.327,78.149M58.16,83.149L58.16,76.749M56.76,81.749L56.76,78.149M48.327,81.749L56.76,81.749M56.76,78.149L48.327,78.149M101.327,104.149L90.094,104.149M101.327,83.549L90.094,83.549M90.094,104.149L90.094,83.549M91.494,102.749L91.494,84.949M101.327,104.149L101.327,83.549M99.927,102.749L99.927,84.949M91.494,102.749L99.927,102.749M99.927,84.949L91.494,84.949M101.327,83.149L90.094,83.149M101.327,76.749L90.094,76.749M90.094,83.149L90.094,76.749M91.494,81.749L91.494,78.149M101.327,83.149L101.327,76.749M99.927,81.749L99.927,78.149M91.494,81.749L99.927,81.749M99.927,78.149L91.494,78.149M5.127,75.949L124.327,75.949M211.327,75.949L214.727,75.949M5.127,72.549L214.727,72.549M5.127,75.949L5.127,74.549M5.127,73.149L5.127,72.549M214.727,75.949L214.727,74.549M214.727,73.149L214.727,72.549M217.327,74.049L216.827,74.549M217.327,73.149L217.327,74.049M217.327,74.049L211.327,74.049M185.627,74.049L2.727,74.049M2.727,74.049L3.227,74.549M3.227,74.549L124.327,74.549M211.327,74.549L216.827,74.549M2.727,73.149L187.764,73.149M189.189,73.149L217.327,73.149M2.727,73.149L2.727,74.049M136.127,6.428L83.927,6.428M5.127,72.549L214.927,72.549M83.927,6.428L5.127,72.549M136.127,6.428L214.927,72.549M5.627,117.949L5.627,120.949M10.127,120.949L10.127,117.949M124.127,120.949L124.127,117.949M5.627,117.949L10.127,117.949M124.127,117.949L190.727,117.949M10.127,117.949L123.727,117.949M190.727,120.949L190.727,117.949M210.727,117.949L210.727,120.949M210.727,117.949L190.727,117.949M137.41,103.349L144.494,103.349M137.41,103.349L137.41,82.149M144.494,103.349L144.494,82.149M139.12,81.254L138.824,81.363M140.952,80.949L140.643,80.957M140.643,80.957L140.335,80.983M140.335,80.983L140.028,81.025M140.028,81.025L139.723,81.085M139.723,81.085L139.42,81.161M139.42,81.161L139.12,81.254M138.824,81.363L138.531,81.489M138.531,81.489L138.243,81.63M138.243,81.63L137.959,81.788M137.959,81.788L137.682,81.961M137.682,81.961L137.41,82.149M140.952,80.949L141.26,80.957M141.26,80.957L141.568,80.983M141.568,80.983L141.875,81.025M141.875,81.025L142.18,81.085M142.18,81.085L142.483,81.161M142.483,81.161L142.783,81.254M142.783,81.254L143.08,81.363M143.08,81.363L143.373,81.489M143.373,81.489L143.661,81.63M143.661,81.63L143.944,81.788M143.944,81.788L144.222,81.961M144.222,81.961L144.494,82.149M167.06,103.349L174.144,103.349M167.06,103.349L167.06,82.149M174.144,103.349L174.144,82.149M168.77,81.254L168.474,81.363M170.602,80.949L170.293,80.957M170.293,80.957L169.985,80.983M169.985,80.983L169.678,81.025M169.678,81.025L169.373,81.085M169.373,81.085L169.07,81.161M169.07,81.161L168.77,81.254M168.474,81.363L168.181,81.489M168.181,81.489L167.893,81.63M167.893,81.63L167.609,81.788M167.609,81.788L167.332,81.961M167.332,81.961L167.06,82.149M170.602,80.949L170.91,80.957M170.91,80.957L171.218,80.983M171.218,80.983L171.525,81.025M171.525,81.025L171.83,81.085M171.83,81.085L172.133,81.161M172.133,81.161L172.433,81.254M172.433,81.254L172.73,81.363M172.73,81.363L173.023,81.489M173.023,81.489L173.311,81.63M173.311,81.63L173.594,81.788M173.594,81.788L173.872,81.961M173.872,81.961L174.144,82.149M126.527,104.349L126.527,81.749M185.027,104.349L185.027,81.749M126.527,104.349L135.61,104.349M175.943,104.349L175.943,81.749M175.943,81.749L176.292,81.561M176.292,81.561L176.648,81.388M176.648,81.388L177.011,81.23M177.011,81.23L177.381,81.089M177.381,81.089L177.756,80.963M177.756,80.963L178.136,80.854M178.136,80.854L178.521,80.761M178.521,80.761L178.91,80.685M178.91,80.685L179.301,80.625M179.301,80.625L179.694,80.583M179.694,80.583L180.089,80.557M180.089,80.557L180.485,80.549M180.485,80.549L180.881,80.557M180.881,80.557L181.276,80.583M181.276,80.583L181.669,80.625M181.669,80.625L182.061,80.685M182.061,80.685L182.449,80.761M182.449,80.761L182.834,80.854M182.834,80.854L183.214,80.963M183.214,80.963L183.59,81.089M183.59,81.089L183.959,81.23M183.959,81.23L184.323,81.388M184.323,81.388L184.679,81.561M184.679,81.561L185.027,81.749M175.943,104.349L185.027,104.349M135.61,81.749L135.61,104.349M145.494,80.349L136.41,80.349M145.494,80.349L145.494,104.349M136.41,104.349L145.494,104.349M136.41,104.349L136.41,80.349M146.293,104.349L146.293,81.749M146.293,81.749L146.642,81.561M146.642,81.561L146.998,81.388M146.998,81.388L147.361,81.23M147.361,81.23L147.731,81.089M147.731,81.089L148.106,80.963M148.106,80.963L148.486,80.854M148.486,80.854L148.871,80.761M148.871,80.761L149.26,80.685M149.26,80.685L149.651,80.625M149.651,80.625L150.044,80.583M150.044,80.583L150.439,80.557M150.439,80.557L150.835,80.549M150.835,80.549L151.231,80.557M151.231,80.557L151.626,80.583M151.626,80.583L152.019,80.625M152.019,80.625L152.411,80.685M152.411,80.685L152.799,80.761M152.799,80.761L153.184,80.854M153.184,80.854L153.564,80.963M153.564,80.963L153.94,81.089M153.94,81.089L154.309,81.23M154.309,81.23L154.673,81.388M154.673,81.388L155.029,81.561M155.029,81.561L155.377,81.749M155.377,81.749L155.377,104.349M146.293,104.349L155.377,104.349M156.177,104.349L156.177,81.749M156.177,81.749L156.525,81.561M156.525,81.561L156.881,81.388M156.881,81.388L157.244,81.23M157.244,81.23L157.614,81.089M157.614,81.089L157.989,80.963M157.989,80.963L158.37,80.854M158.37,80.854L158.755,80.761M158.755,80.761L159.143,80.685M159.143,80.685L159.534,80.625M159.534,80.625L159.928,80.583M159.928,80.583L160.323,80.557M160.323,80.557L160.718,80.549M160.718,80.549L161.114,80.557M161.114,80.557L161.509,80.583M161.509,80.583L161.903,80.625M161.903,80.625L162.294,80.685M162.294,80.685L162.683,80.761M162.683,80.761L163.067,80.854M163.067,80.854L163.448,80.963M163.448,80.963L163.823,81.089M163.823,81.089L164.193,81.23M164.193,81.23L164.556,81.388M164.556,81.388L164.912,81.561M164.912,81.561L165.26,81.749M165.26,81.749L165.26,104.349M156.177,104.349L165.26,104.349M175.144,80.349L166.06,80.349M175.144,80.349L175.144,104.349M166.06,104.349L175.144,104.349M166.06,104.349L166.06,80.349M126.527,81.749L126.875,81.561M126.875,81.561L127.231,81.388M127.231,81.388L127.594,81.23M127.594,81.23L127.964,81.089M127.964,81.089L128.339,80.963M128.339,80.963L128.72,80.854M128.72,80.854L129.105,80.761M129.105,80.761L129.493,80.685M129.493,80.685L129.884,80.625M129.884,80.625L130.278,80.583M130.278,80.583L130.673,80.557M130.673,80.557L131.069,80.549M131.069,80.549L131.464,80.557M131.464,80.557L131.859,80.583M131.859,80.583L132.253,80.625M132.253,80.625L132.644,80.685M132.644,80.685L133.033,80.761M133.033,80.761L133.417,80.854M133.417,80.854L133.798,80.963M133.798,80.963L134.173,81.089M134.173,81.089L134.543,81.23M134.543,81.23L134.906,81.388M134.906,81.388L135.262,81.561M135.262,81.561L135.61,81.749M190.727,78.349L211.127,78.349M211.127,78.349L211.127,75.949M211.327,73.369L211.327,74.049M210.427,73.371L210.427,74.049M190.727,75.949L211.327,75.949M211.327,75.949L211.327,74.049M191.327,74.049L211.327,74.049M210.961,73.369L211.149,73.37M210.427,73.371L210.562,73.369M210.562,73.369L210.656,73.369M211.149,73.37L211.327,73.37M134.644,78.176L124.327,78.176M165.593,78.176L155.277,78.176M175.91,78.176L165.593,78.176M155.277,78.176L144.96,78.176M124.327,78.176L124.327,78.749M124.327,74.365L124.327,78.176M186.227,78.176L175.91,78.176M144.96,78.176L134.644,78.176M134.944,74.083L134.944,77.877M134.944,77.877L135.544,77.877M135.544,77.877L135.544,74.083M135.544,77.877L135.844,78.076M135.844,78.076L135.844,74.271M134.644,78.176L134.644,78.076M134.644,78.076L134.644,74.271M134.644,78.076L134.944,77.877M134.644,78.176L135.844,78.176M135.844,78.176L135.844,78.076M144.66,74.083L144.66,77.877M144.66,77.877L145.26,77.877M145.26,77.877L145.26,74.083M145.26,77.877L145.56,78.076M145.56,78.076L145.56,74.271M144.36,78.176L144.36,78.076M144.36,78.076L144.36,74.271M144.36,78.076L144.66,77.877M144.36,78.176L145.56,78.176M145.56,78.176L145.56,78.076M154.977,74.083L154.977,77.877M154.977,77.877L155.577,77.877M155.577,77.877L155.577,74.083M155.577,77.877L155.877,78.076M155.877,78.076L155.877,74.271M154.677,78.176L154.677,78.076M154.677,78.076L154.677,74.271M154.677,78.076L154.977,77.877M154.677,78.176L155.877,78.176M155.877,78.176L155.877,78.076M165.294,74.083L165.294,77.877M165.294,77.877L165.894,77.877M165.894,77.877L165.894,74.083M165.894,77.877L166.194,78.076M166.194,78.076L166.194,74.271M164.994,78.176L164.994,78.076M164.994,78.076L164.994,74.271M164.994,78.076L165.294,77.877M164.994,78.176L166.194,78.176M166.194,78.176L166.194,78.076M175.61,74.083L175.61,77.877M175.61,77.877L176.21,77.877M176.21,77.877L176.21,74.083M176.21,77.877L176.51,78.076M176.51,78.076L176.51,74.271M175.31,78.176L175.31,78.076M175.31,78.076L175.31,74.271M175.31,78.076L175.61,77.877M175.31,78.176L176.51,78.176M176.51,78.176L176.51,78.076M125.227,74.083L125.227,77.877M125.227,77.877L125.827,77.877M125.827,77.877L125.827,74.083M125.827,77.877L126.127,78.076M126.127,78.076L126.127,74.271M124.927,78.176L124.927,78.076M124.927,78.076L124.927,74.271M124.927,78.076L125.227,77.877M124.927,78.176L126.127,78.176M126.127,78.176L126.127,78.076M186.327,80.149L186.327,79.649M186.327,79.649L186.327,78.749M186.327,79.649L123.927,79.649M123.927,79.649L123.927,80.149M123.927,80.149L186.327,80.149M123.927,78.749L186.327,78.749M123.927,78.749L123.927,79.649M201.727,93.349L192.927,93.349M192.927,92.749L201.727,92.749M201.727,93.349L201.727,92.749M192.927,92.749L192.927,93.349M193.727,91.949L193.727,82.149M200.927,91.949L200.927,82.149M193.727,91.949L200.927,91.949M200.927,82.149L193.727,82.149M194.727,90.949L194.727,83.149M199.927,90.949L199.927,83.149M194.727,90.949L199.927,90.949M199.927,83.149L194.727,83.149M191.327,73.449L188.477,73.049M185.627,74.249L185.627,73.449M191.327,74.249L191.327,73.449M188.477,73.049L185.627,73.449M185.627,74.249L191.327,74.249M123.327,104.949L123.327,105.949M186.227,104.949L123.327,104.949M124.127,117.949L190.727,117.949M190.727,117.949L190.727,74.249M186.227,104.949L186.227,80.149M186.227,78.749L186.227,74.249M124.127,117.949L124.127,105.949M123.327,105.949L186.227,105.949M186.227,105.949L186.227,104.949M124.727,104.949L124.727,80.149M185.427,104.949L185.427,80.149M126.127,104.949L126.127,80.149M10.127,3.773L10.624,3.773M8.463,3.773L8.769,3.773M8.272,3.773L8.463,3.773M8.769,3.773L9.166,3.773M9.63,3.773L10.127,3.773M8.206,3.773L8.272,3.773M10.624,3.773L11.087,3.773M11.087,3.773L11.485,3.773M9.166,3.773L9.63,3.773M11.982,3.773L12.048,3.773M11.79,3.773L11.982,3.773M11.485,3.773L11.79,3.773M5.627,72.129L9.311,69.038M14.627,64.577L14.627,16.949M5.627,72.129L5.627,16.949M14.427,8.249L5.827,8.249M14.427,8.249L14.427,10.349M5.827,8.249L5.827,10.349M14.427,10.349L15.427,10.949M15.427,10.949L4.827,10.949M5.827,10.349L14.427,10.349M5.827,10.349L4.827,10.949M15.427,12.449L15.427,13.949M15.427,13.949L15.427,15.449M4.827,12.449L4.827,13.949M15.427,12.449L4.827,12.449M4.827,13.949L4.827,15.449M15.427,10.949L15.427,12.449M4.827,13.949L15.427,13.949M4.827,15.449L15.427,15.449M4.827,10.949L4.827,12.449M5.227,15.449L5.227,16.949M5.227,16.949L15.027,16.949M15.027,15.449L15.027,16.949M10.127,117.949L10.127,75.949M46.127,75.949L46.127,104.949M5.627,117.949L5.627,75.949M5.627,117.949L10.127,117.949M10.127,117.949L123.727,117.949M102.127,104.949L102.127,75.949M210.727,117.949L210.727,78.349M210.727,117.949L190.727,117.949M192.927,92.749L192.927,81.349M192.927,81.349L201.727,81.349M201.727,81.349L201.727,92.749"/></svg>