<svg xmlns="http://www.w3.org/2000/svg" width="300.065mm" height="274.538mm" viewBox="0 0 300.065 274.538" data-na-document="PS01_T02_D04" data-na-viewport="Viewport_001" data-na-space="paper-mm, viewport frame, origin top-left, x right, y down" data-na-segments="758"><path data-na-class="visible" fill="none" stroke="#666666" stroke-width="0.13" stroke-linecap="round" stroke-linejoin="round" d="M189.576,219.62L189.817,221.74M274.932,249.997L273.817,233.44M280.058,249.629L281.297,249.54M215.114,227.84L215.217,229.54M275.317,229.444L275.417,231.6M185.183,217.635L185.537,219.78M185.183,217.635L189.317,217.34M185.112,217.606L185.177,217.6M274.932,249.997L280.058,249.629M275.317,229.444L273.117,229.64M280.058,249.629L281.517,269.24M215.217,229.54L215.417,232.84M187.517,219.64L185.537,219.78M132.736,-2.764L138.217,8.94M261,-4.921L261.617,3.14M86.108,-1.98L87.317,13.44M161.434,-3.247L165.977,6.62M183.493,-3.618L174.817,5.84M54.095,-1.442L57.617,46.44M267.474,-5.03L270.217,30.24M277.217,208.24L278.717,228.14M183.017,222.14L182.877,219.94M61.217,95.04L44.817,96.34M-0.452,270.462L33.177,267.784M283.029,275.198L282.817,269.84M274.337,250.04L276.017,273.04M279.717,229.04L277.617,229.24M-0.452,250.534L33.217,247.84M70.117,217.04L71.925,240.984M185.117,149.04L185.217,150.44M240.917,122.54L270.317,120.34M-0.452,222.588L25.417,220.54M82.887,279.375L82.217,270.54M296.919,125.272L296.417,118.74M94.617,108.94L96.217,132.24M182.877,219.94L182.617,215.74M213.297,231.44L215.317,231.24M187.417,217.48L187.517,219.64M293.417,77.44L291.617,77.54M291.617,77.54L292.917,97.24M249.317,193.14L273.517,191.34M272.117,143.14L274.117,167.04M273.517,191.34L275.617,191.24M-0.452,148.725L33.957,146.3M-0.452,7.135L16.53,-0.81M279.776,275.266L279.617,272.94M93.315,89.824L94.617,108.94M-0.452,4.073L9.749,-0.696M-0.452,51.421L7.487,50.76M-0.452,75.206L59.417,70.84M-0.452,173.622L28.757,171.338M-0.452,198.614L36.917,195.76M99.077,279.037L96.517,246.54M214.817,195.64L249.317,193.14M-0.452,123.602L23.073,121.876M295.412,57.665L291.617,57.94M295.738,72.252L293.317,72.44M295.527,62.793L291.117,63.14M292.117,72.64L291.017,73.04M274.117,167.04L275.617,191.24M290.017,73.34L289.117,73.84M185.577,220.02L185.617,221.98M61.517,0.24L61.396,-1.564M84.317,78.44L81.117,36.94M252.117,28.14L263.317,27.34M80.017,24.84L77.993,-1.843M96.517,246.54L94.017,210.84M187.017,173.34L187.017,173.84M182.617,215.74L184.817,215.54M213.057,228.16L215.114,227.84M81.117,256.94L61.517,0.24M82.217,270.54L81.117,256.94M232.917,29.64L252.117,28.14M291.017,73.04L290.017,73.34M289.117,73.84L288.717,74.24M288.717,74.24L288.017,75.04M180.297,198.308L188.917,197.64M56.329,266.014L73.717,264.54M81.117,36.94L80.017,24.84M86.917,114.44L84.317,78.44M293.317,72.44L292.117,72.64M88.917,143.34L86.917,114.44M244.717,218.64L245.417,230.74M271.023,203.734L267.217,204.04M181.717,104.74L216.817,101.84M148.817,176.14L187.017,173.34M91.217,61.54L118.117,59.14M46.117,122.04L63.017,120.94M64.717,144.14L65.817,159.04M283.917,31.34L281.131,-5.259M178.117,57.04L212.017,54.54M180.017,81.44L214.017,78.24M178.117,57.04L179.717,77.54M186.017,160.84L187.017,173.34M274.337,250.04L274.932,249.997M232.917,29.64L233.217,34.94M59.417,70.84L61.217,95.04M91.217,61.54L93.017,85.44M266.517,73.94L268.517,97.24M263.317,27.34L264.917,50.44M97.917,156.24L100.017,179.94M101.617,197.24L102.417,204.54M288.617,17.14L294.499,16.691M285.817,58.44L285.817,57.24M287.217,61.14L286.717,60.34M100.017,179.94L101.617,197.24M212.017,54.54L264.917,50.44M296.417,118.74L296.773,118.711M266.517,73.54L266.517,73.94M182.757,217.84L185.112,217.606M286.717,60.34L286.217,59.34M285.817,57.24L283.917,31.34M286.217,59.34L285.817,58.44M216.817,101.84L268.517,97.24M93.017,85.44L93.315,89.824M65.817,159.04L66.517,168.38M49.217,246.74L72.217,244.84M279.617,272.94L279.617,272.54M279.617,272.54L279.917,271.64M281.017,270.44L281.717,270.04M288.217,36.14L289.173,47.488M279.917,271.64L280.417,270.94M285.917,6.54L286.217,9.74M285.317,-0.36L285.917,6.54M291.517,56.44L290.917,48.04M282.817,269.84L281.297,249.54M280.417,270.94L281.017,270.44M286.217,9.74L286.117,11.34M289.173,47.488L290.917,48.04M281.717,270.04L282.217,269.84M286.817,19.64L287.617,28.34M68.417,193.34L69.171,203.85M273.017,231.74L274.337,250.04M282.217,269.84L282.817,269.84M286.117,11.34L286.817,19.64M94.617,108.94L131.117,105.54M37.217,219.64L70.117,217.04M66.517,168.38L68.417,193.34M291.617,57.94L291.517,56.44M131.117,105.54L161.517,102.54M261.617,3.14L263.317,27.34M271.217,206.14L273.117,229.64M94.017,210.84L91.517,176.34M91.517,176.34L88.917,143.34M290.917,48.04L290.017,35.44M287.617,28.34L288.217,36.14M185.537,219.78L185.577,220.02M271.023,203.734L271.217,206.14M61.217,95.04L63.017,120.94M161.517,102.54L181.417,100.74M127.617,58.14L177.917,53.84M273.417,203.54L271.023,203.734M185.217,150.44L222.117,147.44M188.017,202.74L221.717,200.04M45.917,120.34L46.117,122.04M275.717,206.54L275.017,206.14M222.117,147.44L257.217,144.44M271.023,203.734L270.403,196.05M184.817,215.54L185.112,217.606M273.517,203.84L273.417,203.54M93.017,85.44L124.617,82.64M280.717,241.74L279.917,231.34M273.817,233.44L278.817,232.94M185.217,150.44L186.017,160.84M215.017,226.24L215.114,227.84M232.517,24.14L232.917,29.64M189.317,217.34L189.576,219.62M275.017,206.14L274.517,205.64M273.617,204.24L273.517,203.84M124.617,82.64L128.917,82.24M274.517,205.64L274.017,204.94M177.711,213.62L181.249,213.308M270.403,196.05L272.717,195.84M276.717,206.74L275.717,206.54M276.017,273.04L273.717,273.14M73.717,264.54L74.767,279.545M278.517,272.14L276.417,272.04M72.217,244.84L73.717,264.54M13.117,3.64L22.793,-0.915M69.171,203.85L70.117,217.04M271.717,250.24L274.337,250.04M295.117,100.84L293.417,77.44M279.617,272.94L276.017,273.04M276.417,272.04L274.932,249.997M28.011,97.662L-0.452,100.055M279.917,231.34L279.717,229.04M217.217,226.04L215.017,226.24M33.217,247.84L35.907,247.656M296.217,142.14L297.677,159.25M277.617,229.24L275.317,229.444M87.317,13.44L88.417,27.04M216.917,222.64L217.217,226.04M57.617,46.44L59.417,70.84M63.915,133.196L64.717,144.14M89.317,37.74L91.217,61.54M181.417,100.74L181.717,104.74M294.117,112.64L296.217,142.14M188.917,197.64L214.817,195.64M187.017,173.84L188.917,197.64M88.417,27.04L89.317,37.74M273.117,229.64L273.017,231.74M63.017,120.94L63.915,133.196M292.917,97.24L294.117,112.64M268.517,97.24L269.117,104.74M289.617,30.18L288.617,17.14M35.117,170.84L66.517,168.38M231.317,76.74L266.517,73.54M241.817,169.64L274.117,167.04M287.917,61.84L287.217,61.14M174.817,5.84L174.117,5.94M33.957,146.3L64.717,144.14M187.017,173.84L228.817,170.64M273.517,228.84L272.117,208.34M15.207,33.956L14.517,24.04M288.917,62.44L287.917,61.84M277.617,229.24L277.617,231.48M270.217,30.24L272.817,62.44M215.217,229.54L213.177,229.84M180.017,81.44L180.617,89.34M272.817,62.44L273.837,76.08M264.917,50.44L266.517,73.54M212.717,223.14L216.917,222.64M100.017,179.94L128.683,177.702M289.717,62.74L288.917,62.44M272.117,208.34L277.217,208.24M269.117,104.74L270.317,120.34M273.717,273.14L273.063,265.644M273.017,231.74L277.617,231.48M179.717,77.54L180.017,81.44M180.617,89.34L181.417,100.74M174.787,14.316L176.017,30.14M36.917,195.76L68.417,193.34M271.963,253.058L271.717,250.24M170.717,275.54L170.317,273.34M170.317,273.34L130.937,276.1M28.757,171.338L35.117,170.84M293.417,77.44L295.849,77.245M181.249,213.308L180.297,198.308M291.117,63.14L289.717,62.74M102.417,204.54L151.517,200.54M151.517,200.54L180.297,198.308M290.017,35.44L289.617,30.18M273.063,265.644L271.963,253.058M148.417,173.64L148.817,176.14M128.683,177.702L133.317,177.34M289.417,271.54L289.673,275.06M295.117,178.84L297.717,211.64M278.717,228.14L273.517,228.84M174.117,5.94L174.375,9.104M288.017,75.04L287.617,76.04M290.017,35.44L294.908,35.041M273.717,273.14L273.881,275.389M274.117,193.04L274.817,192.64M289.917,111.54L292.417,146.44M272.817,194.84L273.117,194.14M273.837,76.08L275.617,99.74M278.417,134.54L281.017,170.44M176.017,30.14L176.317,33.84M227.717,30.04L232.917,29.64M281.017,170.44L283.817,205.04M283.817,205.04L286.517,237.44M276.717,191.14L275.617,191.24M275.617,99.74L278.417,134.54M276.717,191.94L276.717,191.14M138.217,8.94L87.317,13.44M297.717,211.64L299.276,230.981M273.517,193.54L274.117,193.04M292.417,146.44L295.117,178.84M289.335,270.57L289.417,271.54M272.717,195.84L272.817,194.84M287.617,76.04L287.517,76.34M287.517,76.34L289.917,111.54M273.117,194.14L273.517,193.54M-0.317,9.908L13.117,3.64M181.717,104.74L183.304,124.825M275.517,192.34L276.717,191.94M274.817,192.64L275.517,192.34M281.297,249.54L280.717,241.74M182.877,219.94L185.457,219.78M215.017,226.24L212.957,226.56M277.617,231.48L279.917,231.34M185.117,217.64L185.183,217.635M221.717,200.04L251.817,197.74M155.817,79.84L179.717,77.54M187.517,219.74L189.576,219.62M128.917,82.24L155.817,79.84M185.457,219.78L185.537,219.78M176.317,33.84L177.917,53.84M257.217,144.44L272.117,143.14M181.249,213.308L188.817,212.64M188.817,212.64L188.017,202.74M187.617,221.86L187.517,219.74M278.117,206.74L276.717,206.74M286.517,237.44L289.335,270.57M251.817,197.74L270.403,196.05M279.717,229.04L278.117,206.74M274.017,204.94L273.617,204.24M288.617,17.14L287.417,-0.86M278.817,232.94L280.058,249.629M267.217,204.04L262.277,204.424M103.117,216.74L105.517,255.24M71.925,240.984L72.217,244.84M176.317,33.84L204.821,31.8M167.317,214.54L169.153,214.378M296.317,117.44L295.117,100.84M174.117,5.94L165.977,6.62M106.117,255.34L106.817,255.54M108.717,258.04L114.217,257.62M13.917,13.84L13.117,3.64M169.517,243.34L167.317,214.54M181.417,215.94L181.249,213.308M114.817,246.84L169.517,243.34M177.917,53.84L178.117,57.04M105.517,255.24L106.117,255.34M114.217,257.62L115.297,255.94M108.017,255.94L108.317,256.34M108.717,258.04L109.717,272.84M279.217,270.74L278.517,272.14M115.297,255.94L114.817,246.84M109.717,274.14L109.117,275.14M109.717,272.84L109.717,273.14M102.417,204.54L103.117,216.74M106.817,255.54L108.017,255.94M215.417,232.84L213.397,233.04M296.417,118.74L296.317,117.44M151.217,32.34L176.017,30.14M247.117,4.44L261.617,3.14M281.517,269.24L279.917,270.04M270.317,120.34L272.117,143.14M279.917,270.04L279.217,270.74M108.317,256.34L108.617,256.84M108.617,256.84L108.717,257.34M124.317,34.84L151.217,32.34M174.517,10.84L247.117,4.44M27.317,49.04L57.617,46.44M295.117,100.84L296.373,100.751M165.977,6.62L138.217,8.94M273.417,203.54L272.717,195.84M108.717,257.34L108.717,258.04M89.317,37.74L124.317,34.84M109.817,273.44L109.717,274.14M109.717,273.14L109.817,273.44M183.545,127.13L230.017,123.34M294.005,-5.476L300.254,274.839"/><path data-na-class="visible" fill="none" stroke="#E53935" stroke-width="0.25" stroke-linecap="round" stroke-linejoin="round" d="M132.298,145.718L132.784,151.337M132.784,151.337L147.689,150.048M147.689,150.048L146.706,138.691M117.317,132.54L118.56,146.906M118.56,146.906L132.298,145.718M150.144,129.701L117.317,132.54M152.883,138.156L152.309,131.521M152.309,131.521L150.317,131.693M146.706,138.691L152.883,138.156M150.317,131.693L150.144,129.701"/><path data-na-class="visible" fill="none" stroke="#666666" stroke-width="0.25" stroke-linecap="round" stroke-linejoin="round" d="M27.417,102.64L46.417,101.24M49.917,162.64L48.817,162.74M22.469,169.446L21.527,150.24M35.907,247.656L35.961,248.462M245.917,42.14L246.617,42.14M229.621,118.124L224.887,118.488M118.417,115.44L117.817,109.24M249.217,267.54L248.117,251.94M129.617,75.34L123.917,75.84M45.817,119.24L45.917,120.34M224.887,118.488L221.961,118.714M116.117,115.64L118.417,115.44M229.417,102.34L251.317,100.64M233.217,34.94L245.417,34.04M225.233,137.172L224.681,129.78M228.413,102.418L229.417,102.34M27.155,149.964L27.117,148.74M252.517,127.24L253.117,134.84M219.249,113.076L221.349,110.76M205.217,217.04L205.717,223.64M230.017,123.34L229.621,118.124M246.617,42.14L247.217,50.04M254.417,142.74L232.717,144.34M224.363,269.296L229.345,268.944M47.717,118.24L45.817,119.24M251.917,108.14L251.017,108.24M222.217,268.14L222.317,269.44M220.317,47.64L213.917,48.14M251.317,100.64L251.917,108.14M220.017,77.74L231.317,76.74M21.527,150.24L27.155,149.964M168.059,9.328L168.243,14.548M200.991,166.544L200.091,157.692M48.817,162.74L49.017,168.24M220.617,52.04L220.317,47.64M27.117,148.74L34.037,148.4M168.243,14.548L174.787,14.316M204.193,24.03L212.975,23.322M111.917,76.94L110.617,62.04M144.825,203.01L144.317,203.044M221.349,110.76L224.275,110.534M237.517,231.24L238.717,231.16M223.679,102.782L228.413,102.418M241.417,128.04L252.517,127.24M251.617,116.34L240.517,117.24M55.217,249.34L49.417,249.74M34.037,148.4L46.917,147.74M251.017,108.24L251.617,116.34M233.437,234.96L233.537,236.14M244.017,7.04L244.617,15.54M56.329,266.014L56.017,261.34M49.717,155.04L49.917,162.64M240.517,117.24L240.917,122.54M47.217,155.14L49.717,155.04M46.917,147.74L47.217,155.14M219.511,116.47L219.249,113.076M231.017,136.74L225.233,137.172M220.157,235.88L218.377,213.6M110.617,62.04L141.617,59.24M138.961,209.604L145.267,209.15M221.961,118.714L219.511,116.47M143.617,80.14L130.117,81.44M240.917,122.54L241.417,128.04M177.993,196.3L186.593,195.676M213.717,237.54L227.637,236.56M244.617,15.54L243.817,15.54M232.717,144.34L232.117,136.64M230.465,129.348L230.017,123.34M15.955,44.79L16.317,50.04M219.617,5.34L218.846,-4.212M253.117,134.84L253.917,134.84M233.637,212.38L235.437,234.8M227.537,235.3L220.157,235.88M204.821,31.8L204.193,24.03M243.817,15.54L244.417,23.34M49.017,168.24L34.817,168.84M35.961,248.462L36.111,250.654M253.917,134.84L254.417,142.74M213.397,233.04L213.717,237.54M233.537,236.14L237.917,235.84M123.917,75.84L111.917,76.94M232.117,136.64L231.017,136.74M145.267,209.15L145.127,207.21M144.317,203.044L138.517,203.44M237.917,235.84L237.517,231.24M246.817,3.04L219.617,5.34M245.417,34.04L245.917,42.14M6.829,37.59L6.665,34.328M-0.452,20.643L12.817,20.04M38.683,277.18L38.119,269.87M6.665,34.328L-0.452,34.684M226.291,176.314L229.117,176.14M218.843,85.16L223.361,84.814M181.417,215.94L181.817,222.24M109.017,52.34L107.817,38.14M118.817,9.04L104.417,10.14M266.117,233.84L270.617,233.54M220.517,83.14L220.017,77.74M186.593,195.676L185.595,181.914M212.975,23.322L211.857,9.488M218.377,213.6L233.637,212.38M135.617,35.64L137.317,54.84M34.817,168.84L22.469,169.446M122.737,-2.596L123.051,1.518M176.995,182.538L177.993,196.3M119.117,27.34L106.817,28.44M56.017,261.34L55.217,249.34M244.417,23.34L232.517,24.14M185.595,181.914L176.995,182.538M244.717,218.64L244.117,209.54M150.817,199.14L137.517,200.14M133.317,177.34L133.017,174.94M137.517,200.14L137.217,194.04M56.717,268.44L57.317,276.74M27.817,108.056L27.417,102.64M118.647,6.802L118.817,9.04M104.017,4.54L101.417,4.74M226.925,187.4L226.369,177.548M234.323,186.928L228.221,187.318M137.467,31.226L133.217,31.54M23.073,121.876L22.087,108.478M101.417,4.74L100.887,-2.228M227.637,236.56L227.537,235.3M141.617,59.24L143.617,80.14M245.417,230.74L250.617,230.34M15.717,41.14L15.955,44.79M138.517,203.44L138.961,209.604M107.817,38.14L135.617,35.64M137.217,194.04L119.017,195.24M224.275,110.534L223.679,102.782M217.419,9.064L244.017,7.04M118.271,1.882L118.647,6.802M181.817,222.24L183.017,222.14M7.487,50.76L6.829,37.59M38.119,269.87L42.417,269.54M12.817,20.04L13.517,34.04M260.217,181.44L260.817,189.94M224.681,129.78L230.465,129.348M123.051,1.518L118.271,1.882M235.437,234.8L233.437,234.96M238.717,231.16L245.417,230.74M211.857,9.488L217.419,9.064M247.817,69.84L230.917,71.04M42.417,269.54L56.717,268.44M145.127,207.21L144.825,203.01M13.517,34.04L15.207,33.956M104.417,10.14L104.017,4.54M120.517,170.14L132.617,169.24M49.267,247.546L49.217,246.74M149.417,153.54L119.417,155.94M132.617,169.24L133.017,174.94M29.271,172.826L35.417,172.54M38.673,267.422L44.417,267.04M138.117,127.54L137.617,122.24M230.017,123.34L240.917,122.54M228.221,187.318L226.925,187.4M17.817,125.74L26.617,125.14M26.517,123.94L41.417,123.04M150.917,126.34L138.117,127.54M133.317,177.34L148.817,176.14M52.017,184.74L50.017,184.84M154.017,159.04L149.817,159.34M42.717,144.04L28.217,144.94M224.451,271.63L224.787,276.262M148.017,168.14L154.617,167.64M49.717,176.74L51.417,176.64M19.517,138.04L19.217,134.04M32.487,257.344L33.177,267.784M50.017,184.84L50.517,193.34M49.853,143.598L42.717,144.04M216.817,30.94L227.717,30.04M148.417,173.64L148.017,168.14M267.317,207.84L268.017,217.04M250.617,230.34L249.817,218.24M22.087,108.478L27.817,108.056M48.375,122.62L48.617,126.04M36.817,194.24L35.937,180.64M250.817,96.84L224.417,98.64M51.317,266.44L56.329,266.014M106.817,28.44L105.417,14.24M149.817,159.34L149.417,153.54M36.111,250.654L32.065,250.95M44.417,267.04L51.317,266.44M41.417,123.04L48.375,122.62M234.617,191.54L234.323,186.928M27.717,137.54L19.517,138.04M212.595,31.242L216.817,30.94M26.617,125.14L26.517,123.94M15.207,33.956L15.717,41.14M154.617,167.64L154.017,159.04M119.417,155.94L120.517,170.14M226.369,177.548L226.291,176.314M32.065,250.95L32.487,257.344M170.317,216.74L181.417,215.94M35.417,172.54L49.417,171.64M45.917,120.34L23.073,121.876M133.917,11.44L134.605,18.098M260.817,189.94L234.617,191.54M134.605,18.098L136.215,17.932M49.417,249.74L49.267,247.546M249.817,218.24L244.717,218.64M234.443,270.902L224.451,271.63M49.117,133.14L49.853,143.598M51.417,176.64L52.017,184.74M229.117,176.14L228.817,170.64M33.177,267.784L38.593,267.428M48.617,126.04L49.117,133.14M49.417,171.64L49.717,176.74M234.779,275.536L234.443,270.902M29.753,181.004L29.271,172.826M24.917,71.74L24.117,57.34M11.163,58.054L10.863,52.154M38.593,267.428L38.673,267.422M227.317,24.54L227.717,30.04M51.617,234.24L54.117,234.24M117.817,109.24L149.217,106.54M35.937,180.64L29.753,181.004M133.017,174.94L148.417,173.64M54.517,242.14L54.317,242.74M264.917,217.24L266.117,233.84M231.817,82.04L248.817,80.94M231.317,76.74L231.817,82.04M268.017,217.04L264.917,217.24M149.217,106.54L150.917,126.34M134.917,98.54L129.117,99.04M169.153,214.378L177.711,213.62M27.517,90.14L23.823,90.382M242.117,174.94L259.017,173.84M212.957,226.56L213.066,228.159M54.517,241.64L54.517,242.14M26.417,228.54L50.917,226.84M174.437,275.34L170.317,216.74M259.017,173.84L259.517,181.54M148.217,102.34L135.317,103.44M36.111,250.654L37.519,250.558M18.417,134.04L17.817,125.74M52.217,244.24L27.617,246.34M244.117,209.54L267.317,207.84M16.317,50.04L7.487,50.76M137.617,122.24L116.717,124.04M28.217,144.94L27.717,137.54M116.717,124.04L116.117,115.64M212.717,223.14L212.957,226.56M175.531,78.862L179.179,82.702M259.517,181.54L260.217,181.44M135.317,103.44L135.317,102.94M174.369,87.272L170.721,83.432M53.017,244.04L52.217,244.24M27.617,246.34L26.417,228.54M241.817,169.64L242.117,174.94M28.011,97.662L27.517,90.14M270.617,233.54L271.717,250.24M54.117,234.24L54.517,241.64M168.785,210.22L169.153,214.378M174.787,14.316L174.517,10.84M50.517,193.34L36.817,194.24M232.717,164.64L231.717,149.04M170.721,83.432L175.531,78.862M114.717,86.14L146.417,83.14M19.217,134.04L18.417,134.04M54.317,242.74L53.717,243.54M177.711,213.62L177.343,209.464M177.343,209.464L168.785,210.22M232.517,24.14L227.317,24.54M248.817,80.94L249.417,89.14M50.917,226.84L51.617,234.24M53.717,243.54L53.017,244.04M183.017,222.14L185.617,221.98M179.179,82.702L174.369,87.272M150.267,83.69L151.549,97.352M50.917,202.04L51.717,202.74M113.317,100.54L112.517,92.44M185.617,221.98L189.817,221.74M204.821,31.8L212.595,31.242M36.617,218.54L36.037,210.814M257.717,154.94L258.217,162.74M27.117,41.94L24.717,8.04M22.903,76.358L26.561,76.118M42.417,70.64L24.917,71.74M24.117,57.34L19.317,57.64M34.217,97.14L28.011,97.662M45.717,88.74L44.217,88.84M146.501,84.042L150.267,83.69M41.917,40.84L27.117,41.94M10.863,52.154L19.017,51.74M258.217,162.74L241.517,163.84M44.817,74.24L45.717,88.74M44.217,88.84L44.817,96.34M26.561,76.118L26.517,75.44M23.823,90.382L22.903,76.358M24.717,8.04L39.617,7.04M26.517,75.44L44.817,74.24M39.617,7.04L41.917,40.84M146.417,83.14L146.501,84.042M258.217,155.04L257.717,154.94M257.817,147.44L258.217,155.04M19.017,51.74L39.017,50.54M51.717,202.74L52.817,217.14M31.697,211.08L31.253,203.836M241.517,163.84L241.817,169.64M147.783,97.706L148.217,102.34M39.717,62.84L42.017,62.74M151.549,97.352L147.783,97.706M42.017,62.74L42.417,70.64M44.817,96.34L34.217,97.14M228.817,170.64L231.017,170.44M52.817,217.14L36.617,218.54M36.037,210.814L31.697,211.08M224.005,93.262L219.489,93.608M197.617,269.84L222.217,268.14M130.117,81.44L129.617,75.34M46.717,107.84L45.117,108.04M45.417,112.34L47.217,113.44M47.217,113.44L47.717,118.24M213.917,48.14L213.017,36.64M115.317,92.14L114.717,86.14M105.417,14.24L133.917,11.44M250.317,88.94L250.817,96.84M174.517,10.84L174.375,9.104M190.817,218.04L205.217,217.04M223.361,84.814L223.217,82.94M219.489,93.608L218.843,85.16M200.091,157.692L190.009,158.716M133.217,31.54L119.617,32.84M222.317,269.44L224.363,269.296M191.317,224.64L190.817,218.04M229.345,268.944L249.217,267.54M220.017,77.74L214.017,78.24M112.517,92.44L115.317,92.14M223.217,82.94L220.517,83.14M247.217,50.04L220.617,52.04M213.017,36.64L212.595,31.242M205.717,223.64L212.717,223.14M46.417,101.24L46.717,107.84M248.117,251.94L271.717,250.24M119.617,32.84L119.117,27.34M136.215,17.932L137.467,31.226M190.907,167.568L200.991,166.544M137.317,54.84L127.417,55.74M248.217,61.84L247.317,62.04M129.117,99.04L113.317,100.54M127.417,55.74L127.617,58.14M31.253,203.836L30.917,198.34M30.917,198.34L50.517,197.14M231.017,170.44L241.817,169.64M213.617,72.44L218.087,72.124M114.597,270.92L115.078,278.703M214.017,78.24L213.617,72.44M190.017,224.74L191.317,224.64M230.617,164.74L232.717,164.64M135.317,102.94L134.917,98.54M227.717,30.04L228.117,35.34M213.18,229.84L213.397,233.04M122.017,51.14L109.017,52.34M247.617,53.74L248.217,61.84M213.066,228.159L213.18,229.84M119.017,195.24L117.917,180.84M117.817,55.64L122.417,54.94M231.017,170.44L230.617,164.74M230.917,71.04L231.317,76.74M174.375,9.104L168.059,9.328M189.817,221.74L190.017,224.74M246.174,-4.672L246.817,3.04M118.117,59.14L127.617,58.14M50.517,197.14L50.917,202.04M231.717,149.04L257.817,147.44M220.917,55.74L247.617,53.74M35.907,247.656L49.217,246.74M247.317,62.04L247.817,69.84M228.117,35.34L233.217,34.94M130.937,276.1L130.557,269.94M217.367,61.938L221.357,61.656M19.317,57.64L11.163,58.054M118.117,59.14L117.817,55.64M117.917,180.84L149.417,178.54M37.519,250.558L49.417,249.74M130.557,269.94L114.597,270.92M45.117,108.04L45.417,112.34M198.154,276.97L197.617,269.84M221.357,61.656L220.917,55.74M149.417,178.54L150.817,199.14M122.417,54.94L122.017,51.14M218.087,72.124L217.367,61.938M39.017,50.54L39.717,62.84M249.417,89.14L250.317,88.94M190.009,158.716L190.907,167.568M224.417,98.64L224.005,93.262"/><path data-na-class="visible" fill="none" stroke="#E53935" stroke-width="0.35" stroke-linecap="round" stroke-linejoin="round" d="M150.144,129.701L152.237,129.52M153.827,147.911L147.551,148.454M152.237,129.52L153.827,147.911"/><path data-na-class="visible" fill="none" stroke="#E53935" stroke-width="0.5" stroke-linecap="round" stroke-linejoin="round" d="M183.304,124.825L185.869,149.358M96.233,132.432L96.515,136.686M97.513,151.72L97.749,155.219M96.515,136.686L97.513,151.72M96.233,132.432L97.749,155.219M156.929,127.08L183.304,124.825M136.465,153.297L154.635,151.848M127.287,129.806L152.064,127.527M97.951,156.63L136.465,153.297M97.749,155.219L97.951,156.63M96.233,132.432L127.287,129.806M152.525,127.485L156.929,127.08M154.635,151.848L185.869,149.358M152.064,127.527L152.525,127.485"/></svg>