  0
SECTION
  2
HEADER
  9
$ACADVER
  1
AC1009
  9
$DWGCODEPAGE
  3
ANSI_1252
  9
$INSBASE
 10
0.0
 20
0.0
 30
0.0
  9
$EXTMIN
 10
1e+20
 20
1e+20
 30
1e+20
  9
$EXTMAX
 10
-1e+20
 20
-1e+20
 30
-1e+20
  9
$LIMMIN
 10
0.0
 20
0.0
  9
$LIMMAX
 10
420.0
 20
297.0
  9
$ORTHOMODE
 70
0
  9
$REGENMODE
 70
1
  9
$FILLMODE
 70
1
  9
$DRAGMODE
 70
2
  9
$QTEXTMODE
 70
0
  9
$MIRRTEXT
 70
1
  9
$OSMODE
 70
37
  9
$LTSCALE
 40
1.0
  9
$ATTMODE
 70
1
  9
$TEXTSIZE
 40
0.2
  9
$TRACEWID
 40
0.05
  9
$TEXTSTYLE
  7
STANDARD
  9
$CLAYER
  8
0
  9
$CELTYPE
  6
BYLAYER
  9
$CECOLOR
 62
256
  9
$DIMSCALE
 40
1.0
  9
$DIMASZ
 40
0.18
  9
$DIMEXO
 40
0.0625
  9
$DIMDLI
 40
0.38
  9
$DIMRND
 40
0.0
  9
$DIMDLE
 40
0.0
  9
$DIMEXE
 40
0.18
  9
$DIMTP
 40
0.0
  9
$DIMTM
 40
0.0
  9
$DIMTXT
 40
0.18
  9
$DIMCEN
 40
0.09
  9
$DIMTSZ
 40
0.0
  9
$DIMTOL
 70
0
  9
$DIMLIM
 70
0
  9
$DIMTIH
 70
1
  9
$DIMTOH
 70
1
  9
$DIMSE1
 70
0
  9
$DIMSE2
 70
0
  9
$DIMTAD
 70
0
  9
$DIMZIN
 70
0
  9
$DIMBLK
  1

  9
$DIMASO
 70
1
  9
$DIMSHO
 70
1
  9
$DIMPOST
  1

  9
$DIMAPOST
  1

  9
$DIMALT
 70
0
  9
$DIMALTD
 70
2
  9
$DIMALTF
 40
25.4
  9
$DIMLFAC
 40
1.0
  9
$DIMTOFL
 70
0
  9
$DIMTVP
 40
0.0
  9
$DIMTIX
 70
0
  9
$DIMSOXD
 70
0
  9
$DIMSAH
 70
0
  9
$DIMBLK1
  1

  9
$DIMBLK2
  1

  9
$DIMSTYLE
  2
STANDARD
  9
$DIMCLRD
 70
0
  9
$DIMCLRE
 70
0
  9
$DIMCLRT
 70
0
  9
$DIMTFAC
 40
1.0
  9
$DIMGAP
 40
0.09
  9
$COORDS
 70
1
  9
$ATTDIA
 70
1
  9
$ATTREQ
 70
1
  9
$HANDLING
 70
1
  9
$LUNITS
 70
2
  9
$LUPREC
 70
4
  9
$SKETCHINC
 40
0.1
  9
$FILLETRAD
 40
0.0
  9
$AUNITS
 70
0
  9
$AUPREC
 70
0
  9
$MENU
  1
.
  9
$ELEVATION
 40
0.0
  9
$PELEVATION
 40
0.0
  9
$THICKNESS
 40
0.0
  9
$LIMCHECK
 70
0
  9
$CHAMFERA
 40
0.0
  9
$CHAMFERB
 40
0.0
  9
$SKPOLY
 70
0
  9
$TDCREATE
 40
2461229.4348958335
  9
$TDUPDATE
 40
2461229.4348958335
  9
$TDINDWG
 40
1.16e-08
  9
$TDUSRTIMER
 40
1.16e-08
  9
$USRTIMER
 70
1
  9
$ANGBASE
 50
0.0
  9
$ANGDIR
 70
0
  9
$PDMODE
 70
0
  9
$PDSIZE
 40
0.0
  9
$PLINEWID
 40
0.0
  9
$SPLFRAME
 70
0
  9
$SPLINETYPE
 70
6
  9
$SPLINESEGS
 70
8
  9
$HANDSEED
  5
10C
  9
$SURFTAB1
 70
6
  9
$SURFTAB2
 70
6
  9
$SURFTYPE
 70
6
  9
$SURFU
 70
6
  9
$SURFV
 70
6
  9
$UCSNAME
  2

  9
$UCSORG
 10
0.0
 20
0.0
 30
0.0
  9
$UCSXDIR
 10
1.0
 20
0.0
 30
0.0
  9
$UCSYDIR
 10
0.0
 20
1.0
 30
0.0
  9
$PUCSNAME
  2

  9
$PUCSORG
 10
0.0
 20
0.0
 30
0.0
  9
$PUCSXDIR
 10
1.0
 20
0.0
 30
0.0
  9
$PUCSYDIR
 10
0.0
 20
1.0
 30
0.0
  9
$USERI1
 70
0
  9
$USERI2
 70
0
  9
$USERI3
 70
0
  9
$USERI4
 70
0
  9
$USERI5
 70
0
  9
$USERR1
 40
0.0
  9
$USERR2
 40
0.0
  9
$USERR3
 40
0.0
  9
$USERR4
 40
0.0
  9
$USERR5
 40
0.0
  9
$WORLDVIEW
 70
1
  9
$SHADEDGE
 70
3
  9
$SHADEDIF
 70
70
  9
$TILEMODE
 70
1
  9
$MAXACTVP
 70
64
  9
$PLIMCHECK
 70
0
  9
$PEXTMIN
 10
1e+20
 20
1e+20
 30
1e+20
  9
$PEXTMAX
 10
-1e+20
 20
-1e+20
 30
-1e+20
  9
$PLIMMIN
 10
0.0
 20
0.0
  9
$PLIMMAX
 10
420.0
 20
297.0
  9
$UNITMODE
 70
0
  9
$VISRETAIN
 70
1
  9
$PLINEGEN
 70
0
  9
$PSLTSCALE
 70
1
  0
ENDSEC
  0
SECTION
  2
TABLES
  0
TABLE
  2
VPORT
 70
1
  0
VPORT
  5
DD
  2
*ACTIVE
 70
0
 10
0.0
 20
0.0
 11
1.0
 21
1.0
 12
0.0
 22
0.0
 13
0.0
 23
0.0
 14
0.5
 24
0.5
 15
0.5
 25
0.5
 16
0.0
 26
0.0
 36
1.0
 17
0.0
 27
0.0
 37
-1000.0
 40
564.5685600947819
 41
1.501985252410664
 42
50.0
 43
6691.251126229035
 44
7387.816700883793
 50
0.0
 51
0.0
 71
0
 72
100
 73
1
 74
3
 75
0
 76
0
 77
0
 78
0
  0
ENDTAB
  0
TABLE
  2
LTYPE
 70
3
  0
LTYPE
  5
DE
  2
CONTINUOUS
 70
0
  3
Solid line
 72
65
 73
0
 40
0.0
  0
LTYPE
  5
106
  2
ByBlock
 70
0
  3

 72
65
 73
0
 40
0.0
  0
LTYPE
  5
107
  2
ByLayer
 70
0
  3

 72
65
 73
0
 40
0.0
  0
ENDTAB
  0
TABLE
  2
LAYER
 70
4
  0
LAYER
  5
DF
  2
0
 70
0
 62
7
  6
CONTINUOUS
  0
LAYER
  5
E0
  2
PROFILEEDGES
 70
0
 62
7
  6
CONTINUOUS
  0
LAYER
  5
E1
  2
SECTIONCUTEDGES
 70
0
 62
7
  6
CONTINUOUS
  0
LAYER
  5
108
  2
Defpoints
 70
0
 62
7
  6
Continuous
  0
ENDTAB
  0
TABLE
  2
STYLE
 70
1
  0
STYLE
  5
E2
  2
STANDARD
 70
0
 40
0.0
 41
1.0
 50
0.0
 71
0
 42
0.2
  3
txt
  4

  0
ENDTAB
  0
TABLE
  2
VIEW
 70
0
  0
ENDTAB
  0
TABLE
  2
UCS
 70
0
  0
ENDTAB
  0
TABLE
  2
APPID
 70
3
  0
APPID
  5
E3
  2
ACAD
 70
0
  0
APPID
  5
10A
  2
HATCHBACKGROUNDCOLOR
 70
0
  0
APPID
  5
10B
  2
EZDXF
 70
0
  0
ENDTAB
  0
TABLE
  2
DIMSTYLE
 70
1
  0
DIMSTYLE
105
E4
  2
STANDARD
 70
0
  3

  4

  5

  6

  7

 40
1.0
 41
0.18
 42
0.0625
 43
0.38
 44
0.18
 45
0.0
 46
0.0
 47
0.0
 48
0.0
140
0.18
141
0.09
142
0.0
143
25.4
144
1.0
145
0.0
146
1.0
147
0.09
 71
0
 72
0
 73
1
 74
1
 75
0
 76
0
 77
0
 78
0
170
0
171
2
172
0
173
0
174
0
175
0
176
0
177
0
178
0
  0
ENDTAB
  0
ENDSEC
  0
SECTION
  2
BLOCKS
  0
BLOCK
  5
E5
  8
0
  2
$Model_Space
 70
0
 10
0.0
 20
0.0
 30
0.0
  3
$Model_Space
  1

1001
EZDXF
1000
WRITTEN_BY_EZDXF
1000
1.4.3 @ 2026-07-07T09:26:15.510854+00:00
  0
ENDBLK
  5
21
  8
0
  0
BLOCK
  5
E6
 67
1
  8
0
  2
$Paper_Space
 70
0
 10
0.0
 20
0.0
 30
0.0
  3
$Paper_Space
  1

  0
ENDBLK
  5
1D
 67
1
  8
0
  0
ENDSEC
  0
SECTION
  2
ENTITIES
  0
LINE
  5
65
  8
0
 10
25.37303398720641
 20
0.8886136737726225
 30
0.0
 11
25.75429343937139
 21
2.568758924806298
 31
0.0
  0
LINE
  5
66
  8
0
 10
25.75429343937139
 20
2.568758924806298
 30
0.0
 11
26.45737302825954
 21
4.141630796932734
 31
0.0
  0
LINE
  5
67
  8
0
 10
26.45737302825954
 20
4.141630796932734
 30
0.0
 11
27.45501510470681
 21
5.546250717672701
 31
0.0
  0
LINE
  5
68
  8
0
 10
27.45501510470681
 20
5.546250717672701
 30
0.0
 11
28.70854214466003
 21
6.728163064059999
 31
0.0
  0
LINE
  5
69
  8
0
 10
28.70854214466003
 20
6.728163064059999
 30
0.0
 11
30.16935623571782
 21
7.641546349326257
 31
0.0
  0
LINE
  5
6A
  8
0
 10
30.16935623571782
 20
7.641546349326257
 30
0.0
 11
31.78082316659555
 21
8.250989673290116
 31
0.0
  0
LINE
  5
6B
  8
0
 10
31.78082316659555
 20
8.250989673290116
 30
0.0
 11
33.4804680753653
 21
8.532865565360703
 31
0.0
  0
LINE
  5
6C
  8
0
 10
33.4804680753653
 20
8.532865565360703
 30
0.0
 11
34.63007651925814
 21
8.532865565360703
 31
0.0
  0
LINE
  5
6D
  8
0
 10
34.63007651925814
 20
8.532865565360703
 30
0.0
 11
36.32972142802789
 21
8.250989673290116
 31
0.0
  0
LINE
  5
6E
  8
0
 10
36.32972142802789
 20
8.250989673290116
 30
0.0
 11
37.94118835890562
 21
7.641546349326257
 31
0.0
  0
LINE
  5
6F
  8
0
 10
37.94118835890562
 20
7.641546349326257
 30
0.0
 11
39.40200244996341
 21
6.728163064059999
 31
0.0
  0
LINE
  5
70
  8
0
 10
39.40200244996341
 20
6.728163064059999
 30
0.0
 11
41.01863880862836
 21
5.100258854956
 31
0.0
  0
LINE
  5
71
  8
0
 10
41.01863880862836
 20
5.100258854956
 30
0.0
 11
41.92185376487448
 21
3.633135963972152
 31
0.0
  0
LINE
  5
72
  8
0
 10
41.92185376487448
 20
3.633135963972152
 30
0.0
 11
42.64735946645001
 21
1.456618859247724
 31
0.0
  0
LINE
  5
73
  8
0
 10
42.64735946645001
 20
1.456618859247724
 30
0.0
 11
42.80506123604285
 21
-0.2590084272874627
 31
0.0
  0
LINE
  5
74
  8
0
 10
42.80506123604285
 20
-0.2590084272874627
 30
0.0
 11
42.6235429786072
 21
-1.972279554883718
 31
0.0
  0
LINE
  5
75
  8
0
 10
42.6235429786072
 20
-1.972279554883718
 30
0.0
 11
41.8678733728876
 21
-4.138508692617529
 31
0.0
  0
LINE
  5
76
  8
0
 10
41.8678733728876
 20
-4.138508692617529
 30
0.0
 11
40.57509628464555
 21
-6.033848406307353
 31
0.0
  0
LINE
  5
77
  8
0
 10
40.57509628464555
 20
-6.033848406307353
 30
0.0
 11
39.30527229731197
 21
-7.198234027838767
 31
0.0
  0
LINE
  5
78
  8
0
 10
39.30527229731197
 20
-7.198234027838767
 30
0.0
 11
39.29403164431426
 21
-20.54160045629708
 31
0.0
  0
LINE
  5
79
  8
0
 10
39.29403164431426
 20
-20.54160045629708
 30
0.0
 11
39.02665547716104
 21
-21.88579122068073
 31
0.0
  0
LINE
  5
7A
  8
0
 10
39.02665547716104
 20
-21.88579122068073
 30
0.0
 11
38.22037733384104
 21
-23.39423153013473
 31
0.0
  0
LINE
  5
7B
  8
0
 10
38.22037733384104
 20
-23.39423153013473
 30
0.0
 11
37.25126979960739
 21
-24.36333906436802
 31
0.0
  0
LINE
  5
7C
  8
0
 10
37.25126979960739
 20
-24.36333906436802
 30
0.0
 11
36.0643603172288
 21
-25.04860157352334
 31
0.0
  0
LINE
  5
7D
  8
0
 10
36.0643603172288
 20
-25.04860157352334
 30
0.0
 11
34.7405348064674
 21
-25.40331955005144
 31
0.0
  0
LINE
  5
7E
  8
0
 10
34.7405348064674
 20
-25.40331955005144
 30
0.0
 11
33.71190586885371
 21
-25.4369933748416
 31
0.0
  0
LINE
  5
7F
  8
0
 10
33.71190586885371
 20
-25.4369933748416
 30
0.0
 11
32.36771510447006
 21
-25.16961720768838
 31
0.0
  0
LINE
  5
80
  8
0
 10
32.36771510447006
 20
-25.16961720768838
 30
0.0
 11
31.4302722973116
 21
-24.74486739770719
 31
0.0
  0
LINE
  5
81
  8
0
 10
31.4302722973116
 20
-24.74486739770719
 30
0.0
 11
30.34296169608278
 21
-23.91054462906837
 31
0.0
  0
LINE
  5
82
  8
0
 10
30.34296169608278
 20
-23.91054462906837
 30
0.0
 11
29.50863892744359
 21
-22.82323402783882
 31
0.0
  0
LINE
  5
83
  8
0
 10
29.50863892744359
 20
-22.82323402783882
 30
0.0
 11
29.08388911746241
 21
-21.88579122068073
 31
0.0
  0
LINE
  5
84
  8
0
 10
29.08388911746241
 20
-21.88579122068073
 30
0.0
 11
28.81651295030919
 21
-20.54160045629708
 31
0.0
  0
LINE
  5
85
  8
0
 10
28.81651295030919
 20
-20.54160045629708
 30
0.0
 11
28.80527229731219
 21
-7.198234027838767
 31
0.0
  0
LINE
  5
86
  8
0
 10
28.80527229731219
 20
-7.198234027838767
 30
0.0
 11
28.35676916383315
 21
-6.838231169233573
 31
0.0
  0
LINE
  5
87
  8
0
 10
31.97334878994956
 20
101.0708325114361
 30
0.0
 11
29.64894602872068
 21
100.2180768513258
 31
0.0
  0
LINE
  5
88
  8
0
 10
29.64894602872068
 20
100.2180768513258
 30
0.0
 11
27.62383366190853
 21
98.79366107142155
 31
0.0
  0
LINE
  5
89
  8
0
 10
27.62383366190853
 20
98.79366107142155
 30
0.0
 11
26.03556316483546
 21
96.89433560158132
 31
0.0
  0
LINE
  5
8A
  8
0
 10
26.03556316483546
 20
96.89433560158132
 30
0.0
 11
24.99201445254435
 21
94.64910810813379
 31
0.0
  0
LINE
  5
8B
  8
0
 10
24.99201445254435
 20
94.64910810813379
 30
0.0
 11
24.61100895897999
 21
92.82933105343771
 31
0.0
  0
LINE
  5
8C
  8
0
 10
24.61100895897999
 20
92.82933105343771
 30
0.0
 11
24.66622904641739
 21
90.35405507807667
 31
0.0
  0
LINE
  5
8D
  8
0
 10
24.66622904641739
 20
90.35405507807667
 30
0.0
 11
25.35918004311188
 21
87.97711180394553
 31
0.0
  0
LINE
  5
8E
  8
0
 10
25.35918004311188
 20
87.97711180394553
 30
0.0
 11
26.64279471788854
 21
85.85995007678446
 31
0.0
  0
LINE
  5
8F
  8
0
 10
26.64279471788854
 20
85.85995007678446
 30
0.0
 11
28.42988625822571
 21
84.14637363007654
 31
0.0
  0
LINE
  5
90
  8
0
 10
28.42988625822571
 20
84.14637363007654
 30
0.0
 11
30.59907025013146
 21
82.95277352052807
 31
0.0
  0
LINE
  5
91
  8
0
 10
30.59907025013146
 20
82.95277352052807
 30
0.0
 11
33.00300945779612
 21
82.36022251165828
 31
0.0
  0
LINE
  5
92
  8
0
 10
33.00300945779612
 20
82.36022251165828
 30
0.0
 11
35.47842139377586
 21
82.40896837776928
 31
0.0
  0
LINE
  5
93
  8
0
 10
35.47842139377586
 20
82.40896837776928
 30
0.0
 11
37.85716893669252
 21
83.09570015897991
 31
0.0
  0
LINE
  5
94
  8
0
 10
37.85716893669252
 20
83.09570015897991
 30
0.0
 11
39.97768068966335
 21
84.37377305117757
 31
0.0
  0
LINE
  5
95
  8
0
 10
39.97768068966335
 20
84.37377305117757
 30
0.0
 11
41.69592537578637
 21
86.15637665570314
 31
0.0
  0
LINE
  5
96
  8
0
 10
41.69592537578637
 20
86.15637665570314
 30
0.0
 11
42.89519485806275
 21
88.32243139211587
 31
0.0
  0
LINE
  5
97
  8
0
 10
48.05527229731141
 20
92.09103359614068
 30
0.0
 11
50.11201806460494
 21
92.79625568082491
 31
0.0
  0
LINE
  5
98
  8
0
 10
50.11201806460494
 20
92.79625568082491
 30
0.0
 11
52.15396175528236
 21
93.194755447787
 31
0.0
  0
LINE
  5
99
  8
0
 10
52.15396175528236
 20
93.194755447787
 30
0.0
 11
54.23074854595161
 21
93.31841921074405
 31
0.0
  0
LINE
  5
9A
  8
0
 10
54.23074854595161
 20
93.31841921074405
 30
0.0
 11
57.33069654102169
 21
92.98514456293717
 31
0.0
  0
LINE
  5
9B
  8
0
 10
57.33069654102169
 20
92.98514456293717
 30
0.0
 11
96.08140958116108
 21
81.20937172029969
 31
0.0
  0
LINE
  5
9C
  8
0
 10
96.08140958116108
 20
81.20937172029969
 30
0.0
 11
98.9513615244534
 21
80.51508999142705
 31
0.0
  0
LINE
  5
9D
  8
0
 10
98.9513615244534
 20
80.51508999142705
 30
0.0
 11
101.8626799442507
 21
80.02226513977755
 31
0.0
  0
LINE
  5
9E
  8
0
 10
101.8626799442507
 20
80.02226513977755
 30
0.0
 11
104.8012414066578
 21
79.733287965054
 31
0.0
  0
LINE
  5
9F
  8
0
 10
104.8012414066578
 20
79.733287965054
 30
0.0
 11
107.7527903159007
 21
79.64956035789054
 31
0.0
  0
LINE
  5
A0
  8
0
 10
107.7527903159007
 20
79.64956035789054
 30
0.0
 11
110.7030080712984
 21
79.77148849897702
 31
0.0
  0
LINE
  5
A1
  8
0
 10
110.7030080712984
 20
79.77148849897702
 30
0.0
 11
113.6375825298857
 21
80.09848088858992
 31
0.0
  0
LINE
  5
A2
  8
0
 10
113.6375825298857
 20
80.09848088858992
 30
0.0
 11
117.2312217230284
 21
80.75504197739346
 31
0.0
  0
LINE
  5
A3
  8
0
 10
117.2312217230284
 20
80.75504197739346
 30
0.0
 11
119.2252892889581
 21
81.40710254198969
 31
0.0
  0
LINE
  5
A4
  8
0
 10
119.2252892889581
 20
81.40710254198969
 30
0.0
 11
120.463932661655
 21
82.05955949484337
 31
0.0
  0
LINE
  5
A5
  8
0
 10
120.463932661655
 20
82.05955949484337
 30
0.0
 11
122.6231661529222
 21
83.83206698711862
 31
0.0
  0
LINE
  5
A6
  8
0
 10
122.6231661529222
 20
83.83206698711862
 30
0.0
 11
123.8880693496861
 21
85.50583768234816
 31
0.0
  0
LINE
  5
A7
  8
0
 10
123.8880693496861
 20
85.50583768234816
 30
0.0
 11
125.0038229266334
 21
88.0669245679321
 31
0.0
  0
LINE
  5
A8
  8
0
 10
125.0038229266334
 20
88.0669245679321
 30
0.0
 11
125.2674945450137
 21
89.93455083024776
 31
0.0
  0
LINE
  5
A9
  8
0
 10
125.2674945450137
 20
89.93455083024776
 30
0.0
 11
125.1247229792544
 21
91.11748258300618
 31
0.0
  0
LINE
  5
AA
  8
0
 10
125.1247229792544
 20
91.11748258300618
 30
0.0
 11
124.7491335540705
 21
92.24825392831242
 31
0.0
  0
LINE
  5
AB
  8
0
 10
124.7491335540705
 20
92.24825392831242
 30
0.0
 11
124.1557859351791
 21
93.28152536159125
 31
0.0
  0
LINE
  5
AC
  8
0
 10
124.1557859351791
 20
93.28152536159125
 30
0.0
 11
123.3684710394544
 21
94.17586674308045
 31
0.0
  0
LINE
  5
AD
  8
0
 10
123.3684710394544
 20
94.17586674308045
 30
0.0
 11
122.4187571122927
 21
94.89541848425635
 31
0.0
  0
LINE
  5
AE
  8
0
 10
122.4187571122927
 20
94.89541848425635
 30
0.0
 11
121.3447239645451
 21
95.4113293769636
 31
0.0
  0
LINE
  5
AF
  8
0
 10
121.3447239645451
 20
95.4113293769636
 30
0.0
 11
119.7942312986585
 21
95.74796683876997
 31
0.0
  0
LINE
  5
B0
  8
0
 10
119.7942312986585
 20
95.74796683876997
 30
0.0
 11
118.6029581918111
 21
95.72389119594136
 31
0.0
  0
LINE
  5
B1
  8
0
 10
118.6029581918111
 20
95.72389119594136
 30
0.0
 11
117.0673329277267
 21
95.32488325621343
 31
0.0
  0
LINE
  5
B2
  8
0
 10
117.0673329277267
 20
95.32488325621343
 30
0.0
 11
115.6917373389839
 21
94.53425751422665
 31
0.0
  0
LINE
  5
B3
  8
0
 10
115.6917373389839
 20
94.53425751422665
 30
0.0
 11
110.5698313218118
 21
89.04712960925538
 31
0.0
  0
LINE
  5
B4
  8
0
 10
110.5698313218118
 20
89.04712960925538
 30
0.0
 11
109.2757598763545
 21
88.10679325759648
 31
0.0
  0
LINE
  5
B5
  8
0
 10
109.2757598763545
 20
88.10679325759648
 30
0.0
 11
107.822346068188
 21
87.43863035647612
 31
0.0
  0
LINE
  5
B6
  8
0
 10
107.822346068188
 20
87.43863035647612
 30
0.0
 11
106.2660873555169
 21
87.06861389814706
 31
0.0
  0
LINE
  5
B7
  8
0
 10
106.2660873555169
 20
87.06861389814706
 30
0.0
 11
104.6674790089071
 21
87.01112725317567
 31
0.0
  0
LINE
  5
B8
  8
0
 10
104.6674790089071
 20
87.01112725317567
 30
0.0
 11
103.6089048378946
 21
87.14803979651847
 31
0.0
  0
LINE
  5
B9
  8
0
 10
103.6089048378946
 20
87.14803979651847
 30
0.0
 11
57.62219255914829
 21
102.7617827233092
 31
0.0
  0
LINE
  5
BA
  8
0
 10
57.62219255914829
 20
102.7617827233092
 30
0.0
 11
52.59870894592332
 21
104.0029944132361
 31
0.0
  0
LINE
  5
BB
  8
0
 10
52.59870894592332
 20
104.0029944132361
 30
0.0
 11
48.05527229731141
 21
104.4740956128978
 31
0.0
  0
LINE
  5
BC
  8
0
 10
48.05527229731141
 20
104.4740956128978
 30
0.0
 11
44.86042504099373
 21
104.4882290249881
 31
0.0
  0
LINE
  5
BD
  8
0
 10
44.86042504099373
 20
104.4882290249881
 30
0.0
 11
39.42632133351924
 21
103.9548170424413
 31
0.0
  0
LINE
  5
BE
  8
0
 10
39.42632133351924
 20
103.9548170424413
 30
0.0
 11
35.29207750673483
 21
102.7584563971381
 31
0.0
  0
LINE
  5
BF
  8
0
 10
35.29207750673483
 20
102.7584563971381
 30
0.0
 11
31.97334878994956
 21
101.0708325114361
 31
0.0
  0
LINE
  5
C0
  8
0
 10
31.97334878994956
 20
101.0708325114361
 30
0.0
 11
30.31267989802139
 21
99.921489863803
 31
0.0
  0
LINE
  5
C1
  8
0
 10
30.31267989802139
 20
99.921489863803
 30
0.0
 11
27.75486495739129
 21
97.62265598087266
 31
0.0
  0
LINE
  5
C2
  8
0
 10
27.75486495739129
 20
97.62265598087266
 30
0.0
 11
26.45002910991694
 21
95.76890211842922
 31
0.0
  0
LINE
  5
C3
  8
0
 10
26.45002910991694
 20
95.76890211842922
 30
0.0
 11
25.81635689024968
 21
94.18884914158112
 31
0.0
  0
LINE
  5
C4
  8
0
 10
25.81635689024968
 20
94.18884914158112
 30
0.0
 11
25.47874945568792
 21
91.94719323767755
 31
0.0
  0
LINE
  5
C5
  8
0
 10
25.47874945568792
 20
91.94719323767755
 30
0.0
 11
25.74016366682964
 21
89.69538006123692
 31
0.0
  0
LINE
  5
C6
  8
0
 10
25.74016366682964
 20
89.69538006123692
 30
0.0
 11
26.31990286940116
 21
88.09475195057962
 31
0.0
  0
LINE
  5
C7
  8
0
 10
26.31990286940116
 20
88.09475195057962
 30
0.0
 11
27.56114054837564
 21
86.19782575389372
 31
0.0
  0
LINE
  5
C8
  8
0
 10
27.56114054837564
 20
86.19782575389372
 30
0.0
 11
29.25595662497058
 21
84.69230310780361
 31
0.0
  0
LINE
  5
C9
  8
0
 10
29.25595662497058
 20
84.69230310780361
 30
0.0
 11
31.28597777539242
 21
83.68333625987525
 31
0.0
  0
LINE
  5
CA
  8
0
 10
31.28597777539242
 20
83.68333625987525
 30
0.0
 11
33.50941849602794
 21
83.24139584172372
 31
0.0
  0
LINE
  5
CB
  8
0
 10
33.50941849602794
 20
83.24139584172372
 30
0.0
 11
35.21071574605802
 21
83.30218694851479
 31
0.0
  0
LINE
  5
CC
  8
0
 10
35.21071574605802
 20
83.30218694851479
 30
0.0
 11
37.3969432297948
 21
83.90169454707544
 31
0.0
  0
LINE
  5
CD
  8
0
 10
37.3969432297948
 20
83.90169454707544
 30
0.0
 11
38.89127971365595
 21
84.71721055833875
 31
0.0
  0
LINE
  5
CE
  8
0
 10
38.89127971365595
 20
84.71721055833875
 30
0.0
 11
42.89519485806275
 21
88.32243139211587
 31
0.0
  0
LINE
  5
CF
  8
0
 10
42.89519485806275
 20
88.32243139211587
 30
0.0
 11
45.39395352836738
 21
90.65560465909702
 31
0.0
  0
LINE
  5
D0
  8
0
 10
45.39395352836738
 20
90.65560465909702
 30
0.0
 11
48.05527229731141
 21
92.09103359614068
 31
0.0
  0
LINE
  5
D1
  8
0
 10
48.05527229731141
 20
104.4740956128978
 30
0.0
 11
48.05527229731141
 21
147.5517659721611
 31
0.0
  0
LINE
  5
D2
  8
0
 10
48.05527229731141
 20
147.5517659721611
 30
0.0
 11
20.05527229731202
 21
147.5517659721611
 31
0.0
  0
LINE
  5
D3
  8
0
 10
20.05527229731202
 20
147.5517659721611
 30
0.0
 11
20.05527229731202
 21
-57.44823402783889
 31
0.0
  0
LINE
  5
D4
  8
0
 10
20.05527229731202
 20
-57.44823402783889
 30
0.0
 11
48.05527229731141
 21
-57.44823402783889
 31
0.0
  0
LINE
  5
D5
  8
0
 10
48.05527229731141
 20
-57.44823402783889
 30
0.0
 11
48.05527229731141
 21
92.09103359614068
 31
0.0
  0
ENDSEC
  0
EOF
